<svg width="300" height="218" viewBox="0 0 300 218" fill="none" xmlns="http://www.w3.org/2000/svg">
<g opacity="0.59">
<path d="M59.8218 32.6437C61.9326 32.6437 63.6437 30.9326 63.6437 28.8218C63.6437 26.7111 61.9326 25 59.8218 25C57.7111 25 56 26.7111 56 28.8218C56 30.9326 57.7111 32.6437 59.8218 32.6437Z" fill="#E6E6E6"/>
<path d="M80.023 32.6437C82.4352 32.6437 84.3908 30.9326 84.3908 28.8218C84.3908 26.7111 82.4352 25 80.023 25C77.6107 25 75.6552 26.7111 75.6552 28.8218C75.6552 30.9326 77.6107 32.6437 80.023 32.6437Z" fill="#E6E6E6"/>
<path d="M100.224 32.6437C102.335 32.6437 104.046 30.9326 104.046 28.8218C104.046 26.7111 102.335 25 100.224 25C98.1133 25 96.4022 26.7111 96.4022 28.8218C96.4022 30.9326 98.1133 32.6437 100.224 32.6437Z" fill="#E6E6E6"/>
<path d="M119.879 32.6437C121.99 32.6437 123.701 30.9326 123.701 28.8218C123.701 26.7111 121.99 25 119.879 25C117.769 25 116.058 26.7111 116.058 28.8218C116.058 30.9326 117.769 32.6437 119.879 32.6437Z" fill="#E6E6E6"/>
<path d="M140.081 32.6437C142.493 32.6437 144.448 30.9326 144.448 28.8218C144.448 26.7111 142.493 25 140.081 25C137.668 25 135.713 26.7111 135.713 28.8218C135.713 30.9326 137.668 32.6437 140.081 32.6437Z" fill="#E6E6E6"/>
<path d="M160.282 32.6437C162.392 32.6437 164.104 30.9326 164.104 28.8218C164.104 26.7111 162.392 25 160.282 25C158.171 25 156.46 26.7111 156.46 28.8218C156.46 30.9326 158.171 32.6437 160.282 32.6437Z" fill="#E6E6E6"/>
<path d="M179.937 32.6437C182.048 32.6437 183.759 30.9326 183.759 28.8218C183.759 26.7111 182.048 25 179.937 25C177.826 25 176.115 26.7111 176.115 28.8218C176.115 30.9326 177.826 32.6437 179.937 32.6437Z" fill="#E6E6E6"/>
<path d="M200.138 32.6437C202.55 32.6437 204.506 30.9326 204.506 28.8218C204.506 26.7111 202.55 25 200.138 25C197.726 25 195.77 26.7111 195.77 28.8218C195.77 30.9326 197.726 32.6437 200.138 32.6437Z" fill="#E6E6E6"/>
<path d="M220.339 32.6437C222.45 32.6437 224.161 30.9326 224.161 28.8218C224.161 26.7111 222.45 25 220.339 25C218.228 25 216.517 26.7111 216.517 28.8218C216.517 30.9326 218.228 32.6437 220.339 32.6437Z" fill="#E6E6E6"/>
<path d="M239.994 32.6437C242.105 32.6437 243.816 30.9326 243.816 28.8218C243.816 26.7111 242.105 25 239.994 25C237.884 25 236.172 26.7111 236.172 28.8218C236.172 30.9326 237.884 32.6437 239.994 32.6437Z" fill="#FF8F00"/>
<path d="M59.8218 53.3909C61.9326 53.3909 63.6437 51.4354 63.6437 49.0231C63.6437 46.6108 61.9326 44.6553 59.8218 44.6553C57.7111 44.6553 56 46.6108 56 49.0231C56 51.4354 57.7111 53.3909 59.8218 53.3909Z" fill="#E6E6E6"/>
<path d="M80.023 53.3909C82.4352 53.3909 84.3908 51.4354 84.3908 49.0231C84.3908 46.6108 82.4352 44.6553 80.023 44.6553C77.6107 44.6553 75.6552 46.6108 75.6552 49.0231C75.6552 51.4354 77.6107 53.3909 80.023 53.3909Z" fill="#FF8F00"/>
<path d="M100.224 53.3909C102.335 53.3909 104.046 51.4354 104.046 49.0231C104.046 46.6108 102.335 44.6553 100.224 44.6553C98.1133 44.6553 96.4022 46.6108 96.4022 49.0231C96.4022 51.4354 98.1133 53.3909 100.224 53.3909Z" fill="#E6E6E6"/>
<path d="M119.879 53.3909C121.99 53.3909 123.701 51.4354 123.701 49.0231C123.701 46.6108 121.99 44.6553 119.879 44.6553C117.769 44.6553 116.058 46.6108 116.058 49.0231C116.058 51.4354 117.769 53.3909 119.879 53.3909Z" fill="#E6E6E6"/>
<path d="M140.081 53.3909C142.493 53.3909 144.448 51.4354 144.448 49.0231C144.448 46.6108 142.493 44.6553 140.081 44.6553C137.668 44.6553 135.713 46.6108 135.713 49.0231C135.713 51.4354 137.668 53.3909 140.081 53.3909Z" fill="#E6E6E6"/>
<path d="M160.282 53.3909C162.392 53.3909 164.104 51.4354 164.104 49.0231C164.104 46.6108 162.392 44.6553 160.282 44.6553C158.171 44.6553 156.46 46.6108 156.46 49.0231C156.46 51.4354 158.171 53.3909 160.282 53.3909Z" fill="#E6E6E6"/>
<path d="M179.937 53.3909C182.048 53.3909 183.759 51.4354 183.759 49.0231C183.759 46.6108 182.048 44.6553 179.937 44.6553C177.826 44.6553 176.115 46.6108 176.115 49.0231C176.115 51.4354 177.826 53.3909 179.937 53.3909Z" fill="#E6E6E6"/>
<path d="M200.138 53.3909C202.55 53.3909 204.506 51.4354 204.506 49.0231C204.506 46.6108 202.55 44.6553 200.138 44.6553C197.726 44.6553 195.77 46.6108 195.77 49.0231C195.77 51.4354 197.726 53.3909 200.138 53.3909Z" fill="#E6E6E6"/>
<path d="M220.339 53.3909C222.45 53.3909 224.161 51.4354 224.161 49.0231C224.161 46.6108 222.45 44.6553 220.339 44.6553C218.228 44.6553 216.517 46.6108 216.517 49.0231C216.517 51.4354 218.228 53.3909 220.339 53.3909Z" fill="#E6E6E6"/>
<path d="M239.994 53.3909C242.105 53.3909 243.816 51.4354 243.816 49.0231C243.816 46.6108 242.105 44.6553 239.994 44.6553C237.884 44.6553 236.172 46.6108 236.172 49.0231C236.172 51.4354 237.884 53.3909 239.994 53.3909Z" fill="#E6E6E6"/>
<path d="M59.8218 73.045C61.9326 73.045 63.6437 71.334 63.6437 69.2232C63.6437 67.1125 61.9326 65.4014 59.8218 65.4014C57.7111 65.4014 56 67.1125 56 69.2232C56 71.334 57.7111 73.045 59.8218 73.045Z" fill="#E6E6E6"/>
<path d="M80.023 73.045C82.4352 73.045 84.3908 71.334 84.3908 69.2232C84.3908 67.1125 82.4352 65.4014 80.023 65.4014C77.6107 65.4014 75.6552 67.1125 75.6552 69.2232C75.6552 71.334 77.6107 73.045 80.023 73.045Z" fill="#E6E6E6"/>
<path d="M100.224 73.045C102.335 73.045 104.046 71.334 104.046 69.2232C104.046 67.1125 102.335 65.4014 100.224 65.4014C98.1133 65.4014 96.4022 67.1125 96.4022 69.2232C96.4022 71.334 98.1133 73.045 100.224 73.045Z" fill="#E6E6E6"/>
<path d="M119.879 73.045C121.99 73.045 123.701 71.334 123.701 69.2232C123.701 67.1125 121.99 65.4014 119.879 65.4014C117.769 65.4014 116.058 67.1125 116.058 69.2232C116.058 71.334 117.769 73.045 119.879 73.045Z" fill="#E6E6E6"/>
<path d="M140.081 73.045C142.493 73.045 144.448 71.334 144.448 69.2232C144.448 67.1125 142.493 65.4014 140.081 65.4014C137.668 65.4014 135.713 67.1125 135.713 69.2232C135.713 71.334 137.668 73.045 140.081 73.045Z" fill="#E6E6E6"/>
<path d="M160.282 73.045C162.392 73.045 164.104 71.334 164.104 69.2232C164.104 67.1125 162.392 65.4014 160.282 65.4014C158.171 65.4014 156.46 67.1125 156.46 69.2232C156.46 71.334 158.171 73.045 160.282 73.045Z" fill="#E6E6E6"/>
<path d="M179.937 73.045C182.048 73.045 183.759 71.334 183.759 69.2232C183.759 67.1125 182.048 65.4014 179.937 65.4014C177.826 65.4014 176.115 67.1125 176.115 69.2232C176.115 71.334 177.826 73.045 179.937 73.045Z" fill="#FF8F00"/>
<path d="M200.138 73.045C202.55 73.045 204.506 71.334 204.506 69.2232C204.506 67.1125 202.55 65.4014 200.138 65.4014C197.726 65.4014 195.77 67.1125 195.77 69.2232C195.77 71.334 197.726 73.045 200.138 73.045Z" fill="#E6E6E6"/>
<path d="M220.339 73.045C222.45 73.045 224.161 71.334 224.161 69.2232C224.161 67.1125 222.45 65.4014 220.339 65.4014C218.228 65.4014 216.517 67.1125 216.517 69.2232C216.517 71.334 218.228 73.045 220.339 73.045Z" fill="#E6E6E6"/>
<path d="M239.994 73.045C242.105 73.045 243.816 71.334 243.816 69.2232C243.816 67.1125 242.105 65.4014 239.994 65.4014C237.884 65.4014 236.172 67.1125 236.172 69.2232C236.172 71.334 237.884 73.045 239.994 73.045Z" fill="#E6E6E6"/>
<path d="M59.8218 93.7923C61.9326 93.7923 63.6437 91.8367 63.6437 89.4245C63.6437 87.0122 61.9326 85.0566 59.8218 85.0566C57.7111 85.0566 56 87.0122 56 89.4245C56 91.8367 57.7111 93.7923 59.8218 93.7923Z" fill="#E6E6E6"/>
<path d="M80.023 93.7923C82.4352 93.7923 84.3908 91.8367 84.3908 89.4245C84.3908 87.0122 82.4352 85.0566 80.023 85.0566C77.6107 85.0566 75.6552 87.0122 75.6552 89.4245C75.6552 91.8367 77.6107 93.7923 80.023 93.7923Z" fill="#E6E6E6"/>
<path d="M100.224 93.7923C102.335 93.7923 104.046 91.8367 104.046 89.4245C104.046 87.0122 102.335 85.0566 100.224 85.0566C98.1133 85.0566 96.4022 87.0122 96.4022 89.4245C96.4022 91.8367 98.1133 93.7923 100.224 93.7923Z" fill="#FF8F00"/>
<path d="M119.879 93.7923C121.99 93.7923 123.701 91.8367 123.701 89.4245C123.701 87.0122 121.99 85.0566 119.879 85.0566C117.769 85.0566 116.058 87.0122 116.058 89.4245C116.058 91.8367 117.769 93.7923 119.879 93.7923Z" fill="#E6E6E6"/>
<path d="M140.081 93.7923C142.493 93.7923 144.448 91.8367 144.448 89.4245C144.448 87.0122 142.493 85.0566 140.081 85.0566C137.668 85.0566 135.713 87.0122 135.713 89.4245C135.713 91.8367 137.668 93.7923 140.081 93.7923Z" fill="#E6E6E6"/>
<path d="M160.282 93.7923C162.392 93.7923 164.104 91.8367 164.104 89.4245C164.104 87.0122 162.392 85.0566 160.282 85.0566C158.171 85.0566 156.46 87.0122 156.46 89.4245C156.46 91.8367 158.171 93.7923 160.282 93.7923Z" fill="#E6E6E6"/>
<path d="M179.937 93.7923C182.048 93.7923 183.759 91.8367 183.759 89.4245C183.759 87.0122 182.048 85.0566 179.937 85.0566C177.826 85.0566 176.115 87.0122 176.115 89.4245C176.115 91.8367 177.826 93.7923 179.937 93.7923Z" fill="#E6E6E6"/>
<path d="M200.138 93.7923C202.55 93.7923 204.506 91.8367 204.506 89.4245C204.506 87.0122 202.55 85.0566 200.138 85.0566C197.726 85.0566 195.77 87.0122 195.77 89.4245C195.77 91.8367 197.726 93.7923 200.138 93.7923Z" fill="#E6E6E6"/>
<path d="M220.339 93.7923C222.45 93.7923 224.161 91.8367 224.161 89.4245C224.161 87.0122 222.45 85.0566 220.339 85.0566C218.228 85.0566 216.517 87.0122 216.517 89.4245C216.517 91.8367 218.228 93.7923 220.339 93.7923Z" fill="#E6E6E6"/>
<path d="M239.994 93.7923C242.105 93.7923 243.816 91.8367 243.816 89.4245C243.816 87.0122 242.105 85.0566 239.994 85.0566C237.884 85.0566 236.172 87.0122 236.172 89.4245C236.172 91.8367 237.884 93.7923 239.994 93.7923Z" fill="#E6E6E6"/>
</g>
<path d="M114.264 68H111.943V120.241H114.264V68Z" fill="#3F3D56"/>
<path d="M113.103 126.046C115.027 126.046 116.586 124.486 116.586 122.563C116.586 120.639 115.027 119.08 113.103 119.08C111.18 119.08 109.621 120.639 109.621 122.563C109.621 124.486 111.18 126.046 113.103 126.046Z" fill="#FF8F00"/>
<path d="M140.966 68H139.805V120.241H140.966V68Z" fill="#3F3D56"/>
<path d="M139.805 126.046C141.728 126.046 143.287 124.486 143.287 122.563C143.287 120.639 141.728 119.08 139.805 119.08C137.881 119.08 136.322 120.639 136.322 122.563C136.322 124.486 137.881 126.046 139.805 126.046Z" fill="#3F3D56"/>
<path d="M187.402 68H186.241V120.241H187.402V68Z" fill="#3F3D56"/>
<path d="M187.402 126.046C189.326 126.046 190.885 124.486 190.885 122.563C190.885 120.639 189.326 119.08 187.402 119.08C185.479 119.08 183.92 120.639 183.92 122.563C183.92 124.486 185.479 126.046 187.402 126.046Z" fill="#3F3D56"/>
<path d="M167.667 178.288C169.59 178.288 171.149 176.468 171.149 174.224C171.149 171.98 169.59 170.161 167.667 170.161C165.743 170.161 164.184 171.98 164.184 174.224C164.184 176.468 165.743 178.288 167.667 178.288Z" fill="#3F3D56"/>
<path d="M94.5288 144.621C96.4522 144.621 98.0115 143.062 98.0115 141.138C98.0115 139.215 96.4522 137.655 94.5288 137.655C92.6053 137.655 91.046 139.215 91.046 141.138C91.046 143.062 92.6053 144.621 94.5288 144.621Z" fill="#3F3D56"/>
<path d="M167.667 171.322H166.419V108.73H139.805V107.472H167.667V171.322Z" fill="#3F3D56"/>
<path d="M121.23 200.344C123.153 200.344 124.713 198.785 124.713 196.862C124.713 194.938 123.153 193.379 121.23 193.379C119.306 193.379 117.747 194.938 117.747 196.862C117.747 198.785 119.306 200.344 121.23 200.344Z" fill="#FF8F00"/>
<path d="M122.391 193.379H121.143V130.787H94.5288V129.528H122.391V193.379Z" fill="#3F3D56"/>
<path d="M204.816 172.483C206.74 172.483 208.299 170.924 208.299 169C208.299 167.077 206.74 165.518 204.816 165.518C202.893 165.518 201.333 167.077 201.333 169C201.333 170.924 202.893 172.483 204.816 172.483Z" fill="#FF8F00"/>
<path d="M204.816 165.518H203.555V102.925H186.241V101.667H204.816V165.518Z" fill="#3F3D56"/>
<path d="M94.6656 137.655H93.3679V106.311H113.104V107.578H94.6656V137.655Z" fill="#3F3D56"/>
<path d="M140.385 214.276C142.629 214.276 144.448 212.717 144.448 210.793C144.448 208.87 142.629 207.311 140.385 207.311C138.141 207.311 136.322 208.87 136.322 210.793C136.322 212.717 138.141 214.276 140.385 214.276Z" fill="#3F3D56"/>
<path d="M140.966 207.311H139.668V177.233H121.23V175.966H140.966V207.311Z" fill="#3F3D56"/>
<path d="M186.241 187.575C188.165 187.575 189.724 186.016 189.724 184.092C189.724 182.169 188.165 180.609 186.241 180.609C184.318 180.609 182.759 182.169 182.759 184.092C182.759 186.016 184.318 187.575 186.241 187.575Z" fill="#3F3D56"/>
<path d="M186.378 180.609H185.081V149.265H204.816V150.532H186.378V180.609Z" fill="#3F3D56"/>
<path d="M118.518 20.288C118.646 20.576 118.71 20.832 118.71 21.056C118.71 21.504 118.526 21.888 118.158 22.208C117.806 22.512 117.398 22.664 116.934 22.664C116.63 22.664 116.342 22.584 116.07 22.424C115.798 22.248 115.59 21.992 115.446 21.656L114.174 18.824H106.038L104.766 21.656C104.622 21.992 104.414 22.248 104.142 22.424C103.886 22.584 103.598 22.664 103.278 22.664C102.814 22.664 102.398 22.512 102.03 22.208C101.662 21.888 101.478 21.504 101.478 21.056C101.478 20.832 101.542 20.576 101.67 20.288L108.15 6.68C108.326 6.296 108.59 6.008 108.942 5.816C109.294 5.608 109.67 5.504 110.07 5.504C110.486 5.504 110.87 5.608 111.222 5.816C111.574 6.024 111.846 6.312 112.038 6.68L118.518 20.288ZM107.31 15.992H112.902L110.118 9.752L107.31 15.992Z" fill="#FF8F00"/>
<path d="M127.517 10.544C127.997 10.512 128.373 10.624 128.645 10.88C128.933 11.12 129.077 11.488 129.077 11.984C129.077 12.512 128.949 12.904 128.693 13.16C128.437 13.416 127.981 13.576 127.325 13.64L126.605 13.712C125.725 13.808 125.085 14.096 124.685 14.576C124.301 15.056 124.109 15.672 124.109 16.424V21.008C124.109 21.568 123.933 21.992 123.581 22.28C123.245 22.568 122.821 22.712 122.309 22.712C121.781 22.712 121.341 22.568 120.989 22.28C120.653 21.992 120.485 21.568 120.485 21.008V12.2C120.485 11.672 120.661 11.264 121.013 10.976C121.365 10.688 121.789 10.544 122.285 10.544C122.765 10.544 123.165 10.688 123.485 10.976C123.805 11.248 123.965 11.632 123.965 12.128V12.776C124.253 12.088 124.685 11.56 125.261 11.192C125.853 10.824 126.493 10.616 127.181 10.568L127.517 10.544Z" fill="#FF8F00"/>
<path d="M137.842 20.072C138.322 20.104 138.674 20.224 138.898 20.432C139.122 20.64 139.234 20.944 139.234 21.344C139.234 21.808 139.05 22.16 138.682 22.4C138.314 22.64 137.786 22.736 137.098 22.688L136.426 22.64C133.626 22.416 132.226 20.952 132.226 18.248V13.496H131.266C130.738 13.496 130.338 13.384 130.066 13.16C129.794 12.92 129.658 12.584 129.658 12.152C129.658 11.704 129.794 11.368 130.066 11.144C130.338 10.904 130.738 10.784 131.266 10.784H132.226V8.912C132.226 8.384 132.386 7.968 132.706 7.664C133.042 7.36 133.49 7.208 134.05 7.208C134.61 7.208 135.05 7.36 135.37 7.664C135.69 7.968 135.85 8.384 135.85 8.912V10.784H137.53C138.618 10.784 139.162 11.24 139.162 12.152C139.162 12.584 139.026 12.92 138.754 13.16C138.482 13.384 138.074 13.496 137.53 13.496H135.85V18.512C135.85 18.992 135.962 19.36 136.186 19.616C136.41 19.856 136.738 19.992 137.17 20.024L137.842 20.072Z" fill="#FF8F00"/>
<path d="M142.395 22.712C141.867 22.712 141.427 22.568 141.075 22.28C140.739 21.992 140.571 21.568 140.571 21.008V12.248C140.571 11.688 140.747 11.264 141.099 10.976C141.451 10.688 141.883 10.544 142.395 10.544C142.907 10.544 143.331 10.688 143.667 10.976C144.019 11.264 144.195 11.688 144.195 12.248V21.008C144.195 21.568 144.019 21.992 143.667 22.28C143.331 22.568 142.907 22.712 142.395 22.712ZM142.395 8.624C141.755 8.624 141.251 8.464 140.883 8.144C140.515 7.808 140.331 7.36 140.331 6.8C140.331 6.24 140.515 5.8 140.883 5.48C141.251 5.16 141.755 5 142.395 5C143.019 5 143.515 5.168 143.883 5.504C144.267 5.824 144.459 6.256 144.459 6.8C144.459 7.36 144.275 7.808 143.907 8.144C143.539 8.464 143.035 8.624 142.395 8.624Z" fill="#FF8F00"/>
<path d="M157.794 8.624C157.17 8.624 156.674 8.464 156.306 8.144C155.938 7.808 155.754 7.36 155.754 6.8C155.754 6.256 155.938 5.824 156.306 5.504C156.674 5.168 157.17 5 157.794 5C158.418 5 158.914 5.168 159.282 5.504C159.666 5.824 159.858 6.256 159.858 6.8C159.858 7.36 159.674 7.808 159.306 8.144C158.938 8.464 158.434 8.624 157.794 8.624ZM157.986 10.784C158.53 10.784 158.938 10.904 159.21 11.144C159.482 11.384 159.618 11.72 159.618 12.152V21.008C159.618 21.568 159.442 21.992 159.09 22.28C158.754 22.568 158.322 22.712 157.794 22.712C157.282 22.712 156.85 22.568 156.498 22.28C156.162 21.992 155.994 21.568 155.994 21.008V13.496H151.53V20.984C151.53 21.544 151.354 21.968 151.002 22.256C150.666 22.544 150.242 22.688 149.73 22.688C149.202 22.688 148.762 22.544 148.41 22.256C148.074 21.968 147.906 21.544 147.906 20.984V13.496H146.946C145.874 13.496 145.338 13.048 145.338 12.152C145.338 11.24 145.874 10.784 146.946 10.784H147.906C147.922 9.28 148.354 8.088 149.202 7.208C150.05 6.328 151.21 5.816 152.682 5.672L153.186 5.624C153.282 5.608 153.426 5.6 153.618 5.6C154.61 5.6 155.106 6.024 155.106 6.872C155.106 7.288 154.986 7.616 154.746 7.856C154.522 8.08 154.234 8.208 153.882 8.24L153.378 8.288C152.722 8.352 152.25 8.56 151.962 8.912C151.674 9.248 151.53 9.736 151.53 10.376V10.784H157.986Z" fill="#FF8F00"/>
<path d="M167.84 22.76C166.624 22.76 165.56 22.512 164.648 22.016C163.736 21.52 163.032 20.816 162.536 19.904C162.056 18.992 161.816 17.92 161.816 16.688C161.816 15.456 162.072 14.376 162.584 13.448C163.112 12.504 163.848 11.776 164.792 11.264C165.736 10.752 166.824 10.496 168.056 10.496C168.696 10.496 169.336 10.584 169.976 10.76C170.632 10.936 171.216 11.184 171.728 11.504C172.224 11.808 172.472 12.256 172.472 12.848C172.472 13.264 172.376 13.608 172.184 13.88C171.992 14.136 171.736 14.264 171.416 14.264C171.208 14.264 171.008 14.232 170.816 14.168C170.64 14.088 170.4 13.976 170.096 13.832C169.76 13.656 169.456 13.52 169.184 13.424C168.928 13.328 168.632 13.28 168.296 13.28C167.4 13.28 166.712 13.568 166.232 14.144C165.768 14.704 165.536 15.528 165.536 16.616C165.536 17.704 165.768 18.536 166.232 19.112C166.712 19.688 167.4 19.976 168.296 19.976C168.632 19.976 168.928 19.936 169.184 19.856C169.44 19.76 169.752 19.616 170.12 19.424C170.424 19.28 170.664 19.176 170.84 19.112C171.016 19.032 171.208 18.992 171.416 18.992C171.72 18.992 171.968 19.128 172.16 19.4C172.368 19.672 172.472 20.016 172.472 20.432C172.472 21.024 172.224 21.464 171.728 21.752C171.216 22.072 170.624 22.32 169.952 22.496C169.28 22.672 168.576 22.76 167.84 22.76Z" fill="#FF8F00"/>
<path d="M176.075 22.712C175.547 22.712 175.107 22.568 174.755 22.28C174.419 21.992 174.251 21.568 174.251 21.008V12.248C174.251 11.688 174.427 11.264 174.779 10.976C175.131 10.688 175.563 10.544 176.075 10.544C176.587 10.544 177.011 10.688 177.347 10.976C177.699 11.264 177.875 11.688 177.875 12.248V21.008C177.875 21.568 177.699 21.992 177.347 22.28C177.011 22.568 176.587 22.712 176.075 22.712ZM176.075 8.624C175.435 8.624 174.931 8.464 174.563 8.144C174.195 7.808 174.011 7.36 174.011 6.8C174.011 6.24 174.195 5.8 174.563 5.48C174.931 5.16 175.435 5 176.075 5C176.699 5 177.195 5.168 177.563 5.504C177.947 5.824 178.139 6.256 178.139 6.8C178.139 7.36 177.955 7.808 177.587 8.144C177.219 8.464 176.715 8.624 176.075 8.624Z" fill="#FF8F00"/>
<path d="M185.953 10.496C187.681 10.496 188.962 10.92 189.794 11.768C190.626 12.6 191.042 13.88 191.042 15.608V21.032C191.042 21.56 190.89 21.976 190.586 22.28C190.282 22.568 189.857 22.712 189.313 22.712C188.801 22.712 188.385 22.56 188.065 22.256C187.761 21.936 187.609 21.528 187.609 21.032V20.864C187.369 21.456 186.969 21.92 186.41 22.256C185.85 22.592 185.193 22.76 184.441 22.76C183.641 22.76 182.913 22.6 182.257 22.28C181.618 21.96 181.105 21.512 180.721 20.936C180.354 20.36 180.17 19.72 180.17 19.016C180.17 18.152 180.385 17.472 180.817 16.976C181.265 16.48 181.978 16.12 182.953 15.896C183.929 15.672 185.266 15.56 186.962 15.56H187.586V15.128C187.586 14.456 187.434 13.968 187.13 13.664C186.841 13.36 186.354 13.208 185.665 13.208C184.977 13.208 183.985 13.448 182.689 13.928C182.322 14.104 182.009 14.192 181.754 14.192C181.402 14.192 181.121 14.072 180.913 13.832C180.705 13.576 180.602 13.248 180.602 12.848C180.602 12.528 180.674 12.264 180.817 12.056C180.961 11.848 181.193 11.656 181.513 11.48C182.073 11.176 182.753 10.936 183.553 10.76C184.369 10.584 185.17 10.496 185.953 10.496ZM185.233 20.264C185.938 20.264 186.506 20.032 186.938 19.568C187.369 19.088 187.586 18.472 187.586 17.72V17.312H187.177C185.882 17.312 184.969 17.416 184.441 17.624C183.929 17.832 183.674 18.208 183.674 18.752C183.674 19.2 183.817 19.568 184.105 19.856C184.41 20.128 184.785 20.264 185.233 20.264Z" fill="#FF8F00"/>
<path d="M195.575 22.712C195.047 22.712 194.607 22.568 194.255 22.28C193.919 21.992 193.751 21.568 193.751 21.008V7.232C193.751 6.672 193.919 6.248 194.255 5.96C194.607 5.672 195.047 5.528 195.575 5.528C196.087 5.528 196.511 5.672 196.847 5.96C197.199 6.248 197.375 6.672 197.375 7.232V21.008C197.375 21.568 197.199 21.992 196.847 22.28C196.511 22.568 196.087 22.712 195.575 22.712Z" fill="#FF8F00"/>
<path d="M88.872 55.712C88.296 55.712 87.84 55.544 87.504 55.208C87.168 54.872 87 54.416 87 53.84V40.376C87 39.816 87.168 39.368 87.504 39.032C87.84 38.696 88.296 38.528 88.872 38.528C89.448 38.528 89.904 38.696 90.24 39.032C90.576 39.368 90.744 39.816 90.744 40.376V53.84C90.744 54.416 90.576 54.872 90.24 55.208C89.904 55.544 89.448 55.712 88.872 55.712Z" fill="#FF8F00"/>
<path d="M101.206 43.496C102.614 43.496 103.662 43.912 104.35 44.744C105.038 45.56 105.382 46.8 105.382 48.464V54.008C105.382 54.536 105.214 54.952 104.878 55.256C104.558 55.56 104.118 55.712 103.558 55.712C102.998 55.712 102.558 55.56 102.238 55.256C101.918 54.952 101.758 54.536 101.758 54.008V48.632C101.758 47.832 101.606 47.248 101.302 46.88C101.014 46.512 100.558 46.328 99.9336 46.328C99.1816 46.328 98.5736 46.568 98.1096 47.048C97.6616 47.528 97.4376 48.168 97.4376 48.968V54.008C97.4376 54.536 97.2776 54.952 96.9576 55.256C96.6376 55.56 96.1976 55.712 95.6376 55.712C95.0776 55.712 94.6296 55.56 94.2936 55.256C93.9736 54.952 93.8136 54.536 93.8136 54.008V45.2C93.8136 44.704 93.9816 44.304 94.3176 44C94.6696 43.696 95.1176 43.544 95.6616 43.544C96.1576 43.544 96.5576 43.696 96.8616 44C97.1816 44.288 97.3416 44.664 97.3416 45.128V45.464C97.7576 44.824 98.2936 44.336 98.9496 44C99.6216 43.664 100.374 43.496 101.206 43.496Z" fill="#FF8F00"/>
<path d="M114.639 53.072C115.119 53.104 115.471 53.224 115.695 53.432C115.919 53.64 116.031 53.944 116.031 54.344C116.031 54.808 115.847 55.16 115.479 55.4C115.111 55.64 114.583 55.736 113.895 55.688L113.223 55.64C110.423 55.416 109.023 53.952 109.023 51.248V46.496H108.063C107.535 46.496 107.135 46.384 106.863 46.16C106.591 45.92 106.455 45.584 106.455 45.152C106.455 44.704 106.591 44.368 106.863 44.144C107.135 43.904 107.535 43.784 108.063 43.784H109.023V41.912C109.023 41.384 109.183 40.968 109.503 40.664C109.839 40.36 110.287 40.208 110.847 40.208C111.407 40.208 111.847 40.36 112.167 40.664C112.487 40.968 112.647 41.384 112.647 41.912V43.784H114.327C115.415 43.784 115.959 44.24 115.959 45.152C115.959 45.584 115.823 45.92 115.551 46.16C115.279 46.384 114.871 46.496 114.327 46.496H112.647V51.512C112.647 51.992 112.759 52.36 112.983 52.616C113.207 52.856 113.535 52.992 113.967 53.024L114.639 53.072Z" fill="#FF8F00"/>
<path d="M126.824 52.064C127.144 52.064 127.4 52.192 127.592 52.448C127.8 52.704 127.904 53.032 127.904 53.432C127.904 53.704 127.824 53.96 127.664 54.2C127.504 54.424 127.28 54.616 126.992 54.776C126.448 55.064 125.816 55.304 125.096 55.496C124.376 55.672 123.712 55.76 123.104 55.76C121.824 55.76 120.704 55.512 119.744 55.016C118.8 54.52 118.072 53.816 117.56 52.904C117.048 51.976 116.792 50.888 116.792 49.64C116.792 48.44 117.04 47.376 117.536 46.448C118.032 45.52 118.72 44.8 119.6 44.288C120.48 43.76 121.48 43.496 122.6 43.496C123.672 43.496 124.608 43.736 125.408 44.216C126.224 44.68 126.856 45.352 127.304 46.232C127.752 47.096 127.976 48.112 127.976 49.28C127.976 49.632 127.888 49.904 127.712 50.096C127.552 50.272 127.32 50.36 127.016 50.36H120.296C120.408 51.304 120.696 51.992 121.16 52.424C121.624 52.84 122.288 53.048 123.152 53.048C123.616 53.048 124.032 52.992 124.4 52.88C124.768 52.768 125.176 52.616 125.624 52.424C125.848 52.328 126.064 52.248 126.272 52.184C126.48 52.104 126.664 52.064 126.824 52.064ZM122.696 45.992C122.008 45.992 121.456 46.216 121.04 46.664C120.624 47.096 120.376 47.728 120.296 48.56H124.928C124.88 47.712 124.664 47.072 124.28 46.64C123.912 46.208 123.384 45.992 122.696 45.992Z" fill="#FF8F00"/>
<path d="M131.989 55.712C131.461 55.712 131.021 55.568 130.669 55.28C130.333 54.992 130.165 54.568 130.165 54.008V40.232C130.165 39.672 130.333 39.248 130.669 38.96C131.021 38.672 131.461 38.528 131.989 38.528C132.501 38.528 132.925 38.672 133.261 38.96C133.613 39.248 133.789 39.672 133.789 40.232V54.008C133.789 54.568 133.613 54.992 133.261 55.28C132.925 55.568 132.501 55.712 131.989 55.712Z" fill="#FF8F00"/>
<path d="M138.388 55.712C137.86 55.712 137.42 55.568 137.068 55.28C136.732 54.992 136.564 54.568 136.564 54.008V40.232C136.564 39.672 136.732 39.248 137.068 38.96C137.42 38.672 137.86 38.528 138.388 38.528C138.9 38.528 139.324 38.672 139.66 38.96C140.012 39.248 140.188 39.672 140.188 40.232V54.008C140.188 54.568 140.012 54.992 139.66 55.28C139.324 55.568 138.9 55.712 138.388 55.712Z" fill="#FF8F00"/>
<path d="M144.786 55.712C144.258 55.712 143.818 55.568 143.466 55.28C143.13 54.992 142.962 54.568 142.962 54.008V45.248C142.962 44.688 143.138 44.264 143.49 43.976C143.842 43.688 144.274 43.544 144.786 43.544C145.298 43.544 145.722 43.688 146.058 43.976C146.41 44.264 146.586 44.688 146.586 45.248V54.008C146.586 54.568 146.41 54.992 146.058 55.28C145.722 55.568 145.298 55.712 144.786 55.712ZM144.786 41.624C144.146 41.624 143.642 41.464 143.274 41.144C142.906 40.808 142.722 40.36 142.722 39.8C142.722 39.24 142.906 38.8 143.274 38.48C143.642 38.16 144.146 38 144.786 38C145.41 38 145.906 38.168 146.274 38.504C146.658 38.824 146.85 39.256 146.85 39.8C146.85 40.36 146.666 40.808 146.298 41.144C145.93 41.464 145.426 41.624 144.786 41.624Z" fill="#FF8F00"/>
<path d="M159.584 43.544C160.128 43.544 160.56 43.704 160.88 44.024C161.216 44.328 161.384 44.736 161.384 45.248V54.296C161.384 56.2 160.832 57.64 159.728 58.616C158.624 59.592 157.008 60.08 154.88 60.08C153.088 60.08 151.616 59.76 150.464 59.12C150.176 58.96 149.952 58.76 149.792 58.52C149.632 58.296 149.552 58.04 149.552 57.752C149.552 57.352 149.648 57.024 149.84 56.768C150.032 56.512 150.288 56.384 150.608 56.384C150.784 56.384 150.992 56.416 151.232 56.48C151.472 56.56 151.72 56.648 151.976 56.744C152.488 56.936 152.96 57.088 153.392 57.2C153.824 57.312 154.288 57.368 154.784 57.368C155.808 57.368 156.568 57.136 157.064 56.672C157.56 56.208 157.808 55.504 157.808 54.56V53.264C157.472 53.872 156.968 54.352 156.296 54.704C155.624 55.056 154.872 55.232 154.04 55.232C153.016 55.232 152.104 54.992 151.304 54.512C150.52 54.032 149.904 53.352 149.456 52.472C149.008 51.576 148.784 50.544 148.784 49.376C148.784 48.208 149.008 47.184 149.456 46.304C149.904 45.408 150.52 44.72 151.304 44.24C152.104 43.744 153.016 43.496 154.04 43.496C154.856 43.496 155.592 43.672 156.248 44.024C156.92 44.36 157.432 44.832 157.784 45.44V45.2C157.784 44.688 157.944 44.288 158.264 44C158.6 43.696 159.04 43.544 159.584 43.544ZM155.096 52.472C155.944 52.472 156.6 52.2 157.064 51.656C157.544 51.112 157.784 50.352 157.784 49.376C157.784 48.4 157.544 47.64 157.064 47.096C156.6 46.536 155.944 46.256 155.096 46.256C154.248 46.256 153.584 46.536 153.104 47.096C152.624 47.64 152.384 48.4 152.384 49.376C152.384 50.352 152.624 51.112 153.104 51.656C153.584 52.2 154.248 52.472 155.096 52.472Z" fill="#FF8F00"/>
<path d="M173.629 52.064C173.949 52.064 174.205 52.192 174.397 52.448C174.605 52.704 174.709 53.032 174.709 53.432C174.709 53.704 174.629 53.96 174.469 54.2C174.309 54.424 174.085 54.616 173.797 54.776C173.253 55.064 172.621 55.304 171.901 55.496C171.181 55.672 170.517 55.76 169.909 55.76C168.629 55.76 167.509 55.512 166.549 55.016C165.605 54.52 164.877 53.816 164.365 52.904C163.853 51.976 163.597 50.888 163.597 49.64C163.597 48.44 163.845 47.376 164.341 46.448C164.837 45.52 165.525 44.8 166.405 44.288C167.285 43.76 168.285 43.496 169.405 43.496C170.477 43.496 171.413 43.736 172.213 44.216C173.029 44.68 173.661 45.352 174.109 46.232C174.557 47.096 174.781 48.112 174.781 49.28C174.781 49.632 174.693 49.904 174.517 50.096C174.357 50.272 174.125 50.36 173.821 50.36H167.101C167.213 51.304 167.501 51.992 167.965 52.424C168.429 52.84 169.093 53.048 169.957 53.048C170.421 53.048 170.837 52.992 171.205 52.88C171.573 52.768 171.981 52.616 172.429 52.424C172.653 52.328 172.869 52.248 173.077 52.184C173.285 52.104 173.469 52.064 173.629 52.064ZM169.501 45.992C168.813 45.992 168.261 46.216 167.845 46.664C167.429 47.096 167.181 47.728 167.101 48.56H171.733C171.685 47.712 171.469 47.072 171.085 46.64C170.717 46.208 170.189 45.992 169.501 45.992Z" fill="#FF8F00"/>
<path d="M184.362 43.496C185.77 43.496 186.818 43.912 187.506 44.744C188.194 45.56 188.538 46.8 188.538 48.464V54.008C188.538 54.536 188.37 54.952 188.034 55.256C187.714 55.56 187.274 55.712 186.714 55.712C186.154 55.712 185.714 55.56 185.394 55.256C185.074 54.952 184.914 54.536 184.914 54.008V48.632C184.914 47.832 184.762 47.248 184.458 46.88C184.17 46.512 183.714 46.328 183.09 46.328C182.338 46.328 181.73 46.568 181.266 47.048C180.818 47.528 180.594 48.168 180.594 48.968V54.008C180.594 54.536 180.434 54.952 180.114 55.256C179.794 55.56 179.354 55.712 178.794 55.712C178.234 55.712 177.786 55.56 177.45 55.256C177.13 54.952 176.97 54.536 176.97 54.008V45.2C176.97 44.704 177.138 44.304 177.474 44C177.826 43.696 178.274 43.544 178.818 43.544C179.314 43.544 179.714 43.696 180.018 44C180.338 44.288 180.498 44.664 180.498 45.128V45.464C180.914 44.824 181.45 44.336 182.106 44C182.778 43.664 183.53 43.496 184.362 43.496Z" fill="#FF8F00"/>
<path d="M196.691 55.76C195.475 55.76 194.411 55.512 193.499 55.016C192.587 54.52 191.883 53.816 191.387 52.904C190.907 51.992 190.667 50.92 190.667 49.688C190.667 48.456 190.923 47.376 191.435 46.448C191.963 45.504 192.699 44.776 193.643 44.264C194.587 43.752 195.675 43.496 196.907 43.496C197.547 43.496 198.187 43.584 198.827 43.76C199.483 43.936 200.067 44.184 200.579 44.504C201.075 44.808 201.323 45.256 201.323 45.848C201.323 46.264 201.227 46.608 201.035 46.88C200.843 47.136 200.587 47.264 200.267 47.264C200.059 47.264 199.859 47.232 199.667 47.168C199.491 47.088 199.251 46.976 198.947 46.832C198.611 46.656 198.307 46.52 198.035 46.424C197.779 46.328 197.483 46.28 197.147 46.28C196.251 46.28 195.563 46.568 195.083 47.144C194.619 47.704 194.387 48.528 194.387 49.616C194.387 50.704 194.619 51.536 195.083 52.112C195.563 52.688 196.251 52.976 197.147 52.976C197.483 52.976 197.779 52.936 198.035 52.856C198.291 52.76 198.603 52.616 198.971 52.424C199.275 52.28 199.515 52.176 199.691 52.112C199.867 52.032 200.059 51.992 200.267 51.992C200.571 51.992 200.819 52.128 201.011 52.4C201.219 52.672 201.323 53.016 201.323 53.432C201.323 54.024 201.075 54.464 200.579 54.752C200.067 55.072 199.475 55.32 198.803 55.496C198.131 55.672 197.427 55.76 196.691 55.76Z" fill="#FF8F00"/>
<path d="M212.559 52.064C212.879 52.064 213.135 52.192 213.327 52.448C213.535 52.704 213.639 53.032 213.639 53.432C213.639 53.704 213.559 53.96 213.399 54.2C213.239 54.424 213.015 54.616 212.727 54.776C212.183 55.064 211.551 55.304 210.831 55.496C210.111 55.672 209.447 55.76 208.839 55.76C207.559 55.76 206.439 55.512 205.479 55.016C204.535 54.52 203.807 53.816 203.295 52.904C202.783 51.976 202.527 50.888 202.527 49.64C202.527 48.44 202.775 47.376 203.271 46.448C203.767 45.52 204.455 44.8 205.335 44.288C206.215 43.76 207.215 43.496 208.335 43.496C209.407 43.496 210.343 43.736 211.143 44.216C211.959 44.68 212.591 45.352 213.039 46.232C213.487 47.096 213.711 48.112 213.711 49.28C213.711 49.632 213.623 49.904 213.447 50.096C213.287 50.272 213.055 50.36 212.751 50.36H206.031C206.143 51.304 206.431 51.992 206.895 52.424C207.359 52.84 208.023 53.048 208.887 53.048C209.351 53.048 209.767 52.992 210.135 52.88C210.503 52.768 210.911 52.616 211.359 52.424C211.583 52.328 211.799 52.248 212.007 52.184C212.215 52.104 212.399 52.064 212.559 52.064ZM208.431 45.992C207.743 45.992 207.191 46.216 206.775 46.664C206.359 47.096 206.111 47.728 206.031 48.56H210.663C210.615 47.712 210.399 47.072 210.015 46.64C209.647 46.208 209.119 45.992 208.431 45.992Z" fill="#FF8F00"/>
</svg>
