<svg width="300" height="110" viewBox="0 0 300 110" fill="none" xmlns="http://www.w3.org/2000/svg">
<g clip-path="url(#clip0)">
<path d="M104.25 4.75C101.638 4.75 99.5238 6.8875 99.5238 9.5L99.5 47.5C99.5 50.1125 101.614 52.25 104.226 52.25H132.75C135.362 52.25 137.5 50.1125 137.5 47.5V20.9713C137.5 19.7125 137.001 18.5013 136.099 17.6225L124.628 6.15125C123.749 5.24875 122.538 4.75 121.279 4.75H104.25ZM120.875 19V8.3125L133.938 21.375H123.25C121.944 21.375 120.875 20.3062 120.875 19Z" fill="#72AED0"/>
<path d="M107.3 44.06C107.053 44.06 106.85 43.98 106.69 43.82C106.53 43.6533 106.45 43.4467 106.45 43.2C106.45 42.9533 106.53 42.75 106.69 42.59C106.85 42.4233 107.053 42.34 107.3 42.34C107.547 42.34 107.75 42.4233 107.91 42.59C108.07 42.75 108.15 42.9533 108.15 43.2C108.15 43.4467 108.07 43.6533 107.91 43.82C107.75 43.98 107.547 44.06 107.3 44.06ZM113.27 36.9C113.503 36.9 113.69 36.9633 113.83 37.09C113.977 37.2167 114.05 37.3833 114.05 37.59V43.35C114.05 43.5633 113.98 43.7367 113.84 43.87C113.707 43.9967 113.527 44.06 113.3 44.06C113.073 44.06 112.89 43.9967 112.75 43.87C112.617 43.7367 112.55 43.5633 112.55 43.35V43.27C112.403 43.5233 112.193 43.7233 111.92 43.87C111.653 44.01 111.35 44.08 111.01 44.08C110.59 44.08 110.213 43.9733 109.88 43.76C109.553 43.54 109.297 43.2367 109.11 42.85C108.93 42.4567 108.84 42.0067 108.84 41.5C108.84 40.9933 108.93 40.55 109.11 40.17C109.297 39.7833 109.553 39.4867 109.88 39.28C110.207 39.0733 110.583 38.97 111.01 38.97C111.343 38.97 111.643 39.04 111.91 39.18C112.183 39.32 112.393 39.5167 112.54 39.77V37.56C112.54 37.36 112.607 37.2 112.74 37.08C112.873 36.96 113.05 36.9 113.27 36.9ZM111.45 42.93C111.803 42.93 112.073 42.81 112.26 42.57C112.453 42.3233 112.55 41.9733 112.55 41.52C112.55 41.0667 112.453 40.72 112.26 40.48C112.073 40.24 111.803 40.12 111.45 40.12C111.097 40.12 110.823 40.24 110.63 40.48C110.437 40.7133 110.34 41.0533 110.34 41.5C110.34 41.9533 110.437 42.3067 110.63 42.56C110.823 42.8067 111.097 42.93 111.45 42.93ZM117.573 44.08C117.053 44.08 116.596 43.9767 116.203 43.77C115.809 43.5567 115.506 43.26 115.293 42.88C115.079 42.4933 114.973 42.04 114.973 41.52C114.973 41 115.079 40.55 115.293 40.17C115.506 39.7833 115.809 39.4867 116.203 39.28C116.596 39.0733 117.053 38.97 117.573 38.97C118.093 38.97 118.549 39.0733 118.943 39.28C119.336 39.4867 119.639 39.7833 119.853 40.17C120.066 40.55 120.173 41 120.173 41.52C120.173 42.04 120.066 42.4933 119.853 42.88C119.639 43.26 119.336 43.5567 118.943 43.77C118.549 43.9767 118.093 44.08 117.573 44.08ZM117.573 42.93C118.306 42.93 118.673 42.46 118.673 41.52C118.673 41.0467 118.576 40.6933 118.383 40.46C118.196 40.2267 117.926 40.11 117.573 40.11C116.839 40.11 116.473 40.58 116.473 41.52C116.473 42.46 116.839 42.93 117.573 42.93ZM123.362 44.08C122.855 44.08 122.412 43.9767 122.032 43.77C121.652 43.5633 121.358 43.27 121.152 42.89C120.952 42.51 120.852 42.0633 120.852 41.55C120.852 41.0367 120.958 40.5867 121.172 40.2C121.392 39.8067 121.698 39.5033 122.092 39.29C122.485 39.0767 122.938 38.97 123.452 38.97C123.718 38.97 123.985 39.0067 124.252 39.08C124.525 39.1533 124.768 39.2567 124.982 39.39C125.188 39.5167 125.292 39.7033 125.292 39.95C125.292 40.1233 125.252 40.2667 125.172 40.38C125.092 40.4867 124.985 40.54 124.852 40.54C124.765 40.54 124.682 40.5267 124.602 40.5C124.528 40.4667 124.428 40.42 124.302 40.36C124.162 40.2867 124.035 40.23 123.922 40.19C123.815 40.15 123.692 40.13 123.552 40.13C123.178 40.13 122.892 40.25 122.692 40.49C122.498 40.7233 122.402 41.0667 122.402 41.52C122.402 41.9733 122.498 42.32 122.692 42.56C122.892 42.8 123.178 42.92 123.552 42.92C123.692 42.92 123.815 42.9033 123.922 42.87C124.028 42.83 124.158 42.77 124.312 42.69C124.438 42.63 124.538 42.5867 124.612 42.56C124.685 42.5267 124.765 42.51 124.852 42.51C124.978 42.51 125.082 42.5667 125.162 42.68C125.248 42.7933 125.292 42.9367 125.292 43.11C125.292 43.3567 125.188 43.54 124.982 43.66C124.768 43.7933 124.522 43.8967 124.242 43.97C123.962 44.0433 123.668 44.08 123.362 44.08ZM130.413 42.89C130.56 43.0433 130.633 43.21 130.633 43.39C130.633 43.57 130.563 43.73 130.423 43.87C130.29 44.0033 130.133 44.07 129.953 44.07C129.773 44.07 129.606 43.99 129.453 43.83L128.153 42.43L126.863 43.83C126.71 43.99 126.543 44.07 126.363 44.07C126.176 44.07 126.013 44.0033 125.873 43.87C125.74 43.73 125.673 43.5667 125.673 43.38C125.673 43.2067 125.746 43.0433 125.893 42.89L127.243 41.48L125.983 40.17C125.836 40.0167 125.763 39.8533 125.763 39.68C125.763 39.4933 125.83 39.3333 125.963 39.2C126.103 39.0667 126.263 39 126.443 39C126.63 39 126.8 39.08 126.953 39.24L128.153 40.52L129.363 39.24C129.516 39.08 129.686 39 129.873 39C130.053 39 130.21 39.0667 130.343 39.2C130.483 39.3333 130.553 39.4933 130.553 39.68C130.553 39.8533 130.48 40.0167 130.333 40.17L129.063 41.48L130.413 42.89Z" fill="white"/>
<path d="M167.25 4.75C164.638 4.75 162.524 6.8875 162.524 9.5L162.5 47.5C162.5 50.1125 164.614 52.25 167.226 52.25H195.75C198.362 52.25 200.5 50.1125 200.5 47.5V20.9713C200.5 19.7125 200.001 18.5013 199.099 17.6225L187.628 6.15125C186.749 5.24875 185.538 4.75 184.279 4.75H167.25ZM183.875 19V8.3125L196.938 21.375H186.25C184.944 21.375 183.875 20.3062 183.875 19Z" fill="#D08E72"/>
<path d="M170.3 44.06C170.053 44.06 169.85 43.98 169.69 43.82C169.53 43.6533 169.45 43.4467 169.45 43.2C169.45 42.9533 169.53 42.75 169.69 42.59C169.85 42.4233 170.053 42.34 170.3 42.34C170.547 42.34 170.75 42.4233 170.91 42.59C171.07 42.75 171.15 42.9533 171.15 43.2C171.15 43.4467 171.07 43.6533 170.91 43.82C170.75 43.98 170.547 44.06 170.3 44.06ZM175.288 38.97C176.428 38.97 176.998 39.66 176.998 41.04V43.35C176.998 43.57 176.928 43.7433 176.788 43.87C176.654 43.9967 176.471 44.06 176.238 44.06C176.004 44.06 175.821 43.9967 175.688 43.87C175.554 43.7433 175.488 43.57 175.488 43.35V41.02C175.488 40.7267 175.424 40.51 175.298 40.37C175.178 40.2233 174.988 40.15 174.728 40.15C174.414 40.15 174.161 40.25 173.968 40.45C173.781 40.65 173.688 40.9167 173.688 41.25V43.35C173.688 43.57 173.621 43.7433 173.488 43.87C173.354 43.9967 173.171 44.06 172.938 44.06C172.704 44.06 172.518 43.9967 172.378 43.87C172.244 43.7433 172.178 43.57 172.178 43.35V37.59C172.178 37.3833 172.248 37.2167 172.388 37.09C172.534 36.9633 172.724 36.9 172.958 36.9C173.178 36.9 173.354 36.96 173.488 37.08C173.621 37.2 173.688 37.36 173.688 37.56V39.74C173.861 39.4867 174.084 39.2967 174.358 39.17C174.631 39.0367 174.941 38.97 175.288 38.97ZM180.855 42.96C181.055 42.9733 181.202 43.0233 181.295 43.11C181.388 43.1967 181.435 43.3233 181.435 43.49C181.435 43.6833 181.358 43.83 181.205 43.93C181.052 44.03 180.832 44.07 180.545 44.05L180.265 44.03C179.098 43.9367 178.515 43.3267 178.515 42.2V40.22H178.115C177.895 40.22 177.728 40.1733 177.615 40.08C177.502 39.98 177.445 39.84 177.445 39.66C177.445 39.4733 177.502 39.3333 177.615 39.24C177.728 39.14 177.895 39.09 178.115 39.09H178.515V38.31C178.515 38.09 178.582 37.9167 178.715 37.79C178.855 37.6633 179.042 37.6 179.275 37.6C179.508 37.6 179.692 37.6633 179.825 37.79C179.958 37.9167 180.025 38.09 180.025 38.31V39.09H180.725C181.178 39.09 181.405 39.28 181.405 39.66C181.405 39.84 181.348 39.98 181.235 40.08C181.122 40.1733 180.952 40.22 180.725 40.22H180.025V42.31C180.025 42.51 180.072 42.6633 180.165 42.77C180.258 42.87 180.395 42.9267 180.575 42.94L180.855 42.96ZM188.042 38.97C188.575 38.97 188.985 39.1333 189.272 39.46C189.559 39.78 189.702 40.3067 189.702 41.04V43.35C189.702 43.5833 189.632 43.76 189.492 43.88C189.352 44 189.172 44.06 188.952 44.06C188.739 44.06 188.559 44 188.412 43.88C188.265 43.76 188.192 43.5833 188.192 43.35V41.02C188.192 40.7 188.135 40.4767 188.022 40.35C187.915 40.2167 187.749 40.15 187.522 40.15C187.242 40.15 187.019 40.2467 186.852 40.44C186.685 40.6333 186.602 40.9033 186.602 41.25V43.35C186.602 43.5833 186.532 43.76 186.392 43.88C186.252 44 186.072 44.06 185.852 44.06C185.639 44.06 185.459 44 185.312 43.88C185.165 43.76 185.092 43.5833 185.092 43.35V41.02C185.092 40.7 185.035 40.4767 184.922 40.35C184.815 40.2167 184.649 40.15 184.422 40.15C184.142 40.15 183.919 40.2467 183.752 40.44C183.585 40.6333 183.502 40.9033 183.502 41.25V43.35C183.502 43.5833 183.429 43.76 183.282 43.88C183.142 44 182.965 44.06 182.752 44.06C182.539 44.06 182.359 44 182.212 43.88C182.065 43.76 181.992 43.5833 181.992 43.35V39.68C181.992 39.46 182.065 39.29 182.212 39.17C182.365 39.05 182.549 38.99 182.762 38.99C182.962 38.99 183.129 39.05 183.262 39.17C183.395 39.2833 183.462 39.4433 183.462 39.65V39.75C183.622 39.4967 183.829 39.3033 184.082 39.17C184.342 39.0367 184.635 38.97 184.962 38.97C185.315 38.97 185.612 39.0433 185.852 39.19C186.099 39.33 186.289 39.56 186.422 39.88C186.575 39.6 186.792 39.38 187.072 39.22C187.359 39.0533 187.682 38.97 188.042 38.97ZM191.6 44.06C191.38 44.06 191.196 44 191.05 43.88C190.91 43.76 190.84 43.5833 190.84 43.35V37.61C190.84 37.3767 190.91 37.2 191.05 37.08C191.196 36.96 191.38 36.9 191.6 36.9C191.813 36.9 191.99 36.96 192.13 37.08C192.276 37.2 192.35 37.3767 192.35 37.61V43.35C192.35 43.5833 192.276 43.76 192.13 43.88C191.99 44 191.813 44.06 191.6 44.06Z" fill="white"/>
<path d="M59.8218 69.6437C61.9326 69.6437 63.6437 67.9326 63.6437 65.8218C63.6437 63.7111 61.9326 62 59.8218 62C57.7111 62 56 63.7111 56 65.8218C56 67.9326 57.7111 69.6437 59.8218 69.6437Z" fill="#E6E6E6"/>
<path d="M80.0228 69.6437C82.4351 69.6437 84.3907 67.9326 84.3907 65.8218C84.3907 63.7111 82.4351 62 80.0228 62C77.6106 62 75.655 63.7111 75.655 65.8218C75.655 67.9326 77.6106 69.6437 80.0228 69.6437Z" fill="#E6E6E6"/>
<path d="M100.224 69.6437C102.335 69.6437 104.046 67.9326 104.046 65.8218C104.046 63.7111 102.335 62 100.224 62C98.1134 62 96.4023 63.7111 96.4023 65.8218C96.4023 67.9326 98.1134 69.6437 100.224 69.6437Z" fill="#E6E6E6"/>
<path d="M119.879 69.6437C121.99 69.6437 123.701 67.9326 123.701 65.8218C123.701 63.7111 121.99 62 119.879 62C117.769 62 116.058 63.7111 116.058 65.8218C116.058 67.9326 117.769 69.6437 119.879 69.6437Z" fill="#E6E6E6"/>
<path d="M140.08 69.6437C142.493 69.6437 144.448 67.9326 144.448 65.8218C144.448 63.7111 142.493 62 140.08 62C137.668 62 135.713 63.7111 135.713 65.8218C135.713 67.9326 137.668 69.6437 140.08 69.6437Z" fill="#E6E6E6"/>
<path d="M160.282 69.6437C162.393 69.6437 164.104 67.9326 164.104 65.8218C164.104 63.7111 162.393 62 160.282 62C158.171 62 156.46 63.7111 156.46 65.8218C156.46 67.9326 158.171 69.6437 160.282 69.6437Z" fill="#E6E6E6"/>
<path d="M179.937 69.6437C182.048 69.6437 183.759 67.9326 183.759 65.8218C183.759 63.7111 182.048 62 179.937 62C177.826 62 176.115 63.7111 176.115 65.8218C176.115 67.9326 177.826 69.6437 179.937 69.6437Z" fill="#E6E6E6"/>
<path d="M200.138 69.6437C202.55 69.6437 204.506 67.9326 204.506 65.8218C204.506 63.7111 202.55 62 200.138 62C197.726 62 195.77 63.7111 195.77 65.8218C195.77 67.9326 197.726 69.6437 200.138 69.6437Z" fill="#E6E6E6"/>
<path d="M220.339 69.6437C222.45 69.6437 224.161 67.9326 224.161 65.8218C224.161 63.7111 222.45 62 220.339 62C218.228 62 216.517 63.7111 216.517 65.8218C216.517 67.9326 218.228 69.6437 220.339 69.6437Z" fill="#FF8F00"/>
<path d="M239.994 69.6437C242.105 69.6437 243.816 67.9326 243.816 65.8218C243.816 63.7111 242.105 62 239.994 62C237.883 62 236.172 63.7111 236.172 65.8218C236.172 67.9326 237.883 69.6437 239.994 69.6437Z" fill="#E6E6E6"/>
<path d="M59.8218 90.3907C61.9326 90.3907 63.6437 88.6797 63.6437 86.5689C63.6437 84.4582 61.9326 82.7471 59.8218 82.7471C57.7111 82.7471 56 84.4582 56 86.5689C56 88.6797 57.7111 90.3907 59.8218 90.3907Z" fill="#E6E6E6"/>
<path d="M80.0228 90.3907C82.4351 90.3907 84.3907 88.6797 84.3907 86.5689C84.3907 84.4582 82.4351 82.7471 80.0228 82.7471C77.6106 82.7471 75.655 84.4582 75.655 86.5689C75.655 88.6797 77.6106 90.3907 80.0228 90.3907Z" fill="#E6E6E6"/>
<path d="M100.224 90.3907C102.335 90.3907 104.046 88.6797 104.046 86.5689C104.046 84.4582 102.335 82.7471 100.224 82.7471C98.1134 82.7471 96.4023 84.4582 96.4023 86.5689C96.4023 88.6797 98.1134 90.3907 100.224 90.3907Z" fill="#E6E6E6"/>
<path d="M119.879 90.3907C121.99 90.3907 123.701 88.6797 123.701 86.5689C123.701 84.4582 121.99 82.7471 119.879 82.7471C117.769 82.7471 116.058 84.4582 116.058 86.5689C116.058 88.6797 117.769 90.3907 119.879 90.3907Z" fill="#FF8F00"/>
<path d="M140.08 90.3907C142.493 90.3907 144.448 88.6797 144.448 86.5689C144.448 84.4582 142.493 82.7471 140.08 82.7471C137.668 82.7471 135.713 84.4582 135.713 86.5689C135.713 88.6797 137.668 90.3907 140.08 90.3907Z" fill="#E6E6E6"/>
<path d="M160.282 90.3907C162.393 90.3907 164.104 88.6797 164.104 86.5689C164.104 84.4582 162.393 82.7471 160.282 82.7471C158.171 82.7471 156.46 84.4582 156.46 86.5689C156.46 88.6797 158.171 90.3907 160.282 90.3907Z" fill="#E6E6E6"/>
<path d="M179.937 90.3907C182.048 90.3907 183.759 88.6797 183.759 86.5689C183.759 84.4582 182.048 82.7471 179.937 82.7471C177.826 82.7471 176.115 84.4582 176.115 86.5689C176.115 88.6797 177.826 90.3907 179.937 90.3907Z" fill="#E6E6E6"/>
<path d="M200.138 90.3907C202.55 90.3907 204.506 88.6797 204.506 86.5689C204.506 84.4582 202.55 82.7471 200.138 82.7471C197.726 82.7471 195.77 84.4582 195.77 86.5689C195.77 88.6797 197.726 90.3907 200.138 90.3907Z" fill="#E6E6E6"/>
<path d="M220.339 90.3907C222.45 90.3907 224.161 88.6797 224.161 86.5689C224.161 84.4582 222.45 82.7471 220.339 82.7471C218.228 82.7471 216.517 84.4582 216.517 86.5689C216.517 88.6797 218.228 90.3907 220.339 90.3907Z" fill="#E6E6E6"/>
<path d="M239.994 90.3907C242.105 90.3907 243.816 88.6797 243.816 86.5689C243.816 84.4582 242.105 82.7471 239.994 82.7471C237.883 82.7471 236.172 84.4582 236.172 86.5689C236.172 88.6797 237.883 90.3907 239.994 90.3907Z" fill="#E6E6E6"/>
<path d="M59.8218 110.046C61.9326 110.046 63.6437 108.335 63.6437 106.224C63.6437 104.113 61.9326 102.402 59.8218 102.402C57.7111 102.402 56 104.113 56 106.224C56 108.335 57.7111 110.046 59.8218 110.046Z" fill="#E6E6E6"/>
<path d="M80.0228 110.046C82.4351 110.046 84.3907 108.335 84.3907 106.224C84.3907 104.113 82.4351 102.402 80.0228 102.402C77.6106 102.402 75.655 104.113 75.655 106.224C75.655 108.335 77.6106 110.046 80.0228 110.046Z" fill="#E6E6E6"/>
<path d="M100.224 110.046C102.335 110.046 104.046 108.335 104.046 106.224C104.046 104.113 102.335 102.402 100.224 102.402C98.1134 102.402 96.4023 104.113 96.4023 106.224C96.4023 108.335 98.1134 110.046 100.224 110.046Z" fill="#E6E6E6"/>
<path d="M119.879 110.046C121.99 110.046 123.701 108.335 123.701 106.224C123.701 104.113 121.99 102.402 119.879 102.402C117.769 102.402 116.058 104.113 116.058 106.224C116.058 108.335 117.769 110.046 119.879 110.046Z" fill="#E6E6E6"/>
<path d="M140.08 110.046C142.493 110.046 144.448 108.335 144.448 106.224C144.448 104.113 142.493 102.402 140.08 102.402C137.668 102.402 135.713 104.113 135.713 106.224C135.713 108.335 137.668 110.046 140.08 110.046Z" fill="#E6E6E6"/>
<path d="M160.282 110.046C162.393 110.046 164.104 108.335 164.104 106.224C164.104 104.113 162.393 102.402 160.282 102.402C158.171 102.402 156.46 104.113 156.46 106.224C156.46 108.335 158.171 110.046 160.282 110.046Z" fill="#E6E6E6"/>
<path d="M179.937 110.046C182.048 110.046 183.759 108.335 183.759 106.224C183.759 104.113 182.048 102.402 179.937 102.402C177.826 102.402 176.115 104.113 176.115 106.224C176.115 108.335 177.826 110.046 179.937 110.046Z" fill="#FF8F00"/>
<path d="M200.138 110.046C202.55 110.046 204.506 108.335 204.506 106.224C204.506 104.113 202.55 102.402 200.138 102.402C197.726 102.402 195.77 104.113 195.77 106.224C195.77 108.335 197.726 110.046 200.138 110.046Z" fill="#E6E6E6"/>
<path d="M220.339 110.046C222.45 110.046 224.161 108.335 224.161 106.224C224.161 104.113 222.45 102.402 220.339 102.402C218.228 102.402 216.517 104.113 216.517 106.224C216.517 108.335 218.228 110.046 220.339 110.046Z" fill="#E6E6E6"/>
<path d="M239.994 110.046C242.105 110.046 243.816 108.335 243.816 106.224C243.816 104.113 242.105 102.402 239.994 102.402C237.883 102.402 236.172 104.113 236.172 106.224C236.172 108.335 237.883 110.046 239.994 110.046Z" fill="#E6E6E6"/>
</g>
<defs>
<clipPath id="clip0">
<rect width="300" height="110" fill="white"/>
</clipPath>
</defs>
</svg>
