<svg width="300" height="150" viewBox="0 0 300 150" fill="none" xmlns="http://www.w3.org/2000/svg">
<path fill-rule="evenodd" clip-rule="evenodd" d="M195.564 54.2983C196.142 54.2983 197.16 54.4395 197.16 53.5203C197.16 52.7955 196.575 52.7026 195.955 52.7026H194.696V54.2983H195.564V54.2983ZM197.686 56.8081H197.01L195.711 54.7287H194.693V56.8081H194.115V52.3153H196.092C196.525 52.3153 196.861 52.3686 197.203 52.5563C197.491 52.7043 197.682 53.0933 197.682 53.5237C197.682 54.4429 197.055 54.7304 196.333 54.7304L197.686 56.8081V56.8081ZM199.133 54.541C199.129 53.6196 198.762 52.7371 198.111 52.0856C197.46 51.434 196.579 51.0662 195.659 51.0621C193.729 51.0621 192.097 52.6096 192.097 54.541C192.097 56.5189 193.729 58.1095 195.659 58.1095C197.541 58.1078 199.133 56.5189 199.133 54.541ZM191.661 54.541C191.66 54.017 191.764 53.4981 191.965 53.0144C192.166 52.5307 192.461 52.0919 192.833 51.7233C193.205 51.3547 193.646 51.0637 194.131 50.8671C194.617 50.6706 195.136 50.5725 195.659 50.5784C197.882 50.5784 199.664 52.3686 199.664 54.541C199.664 56.7616 197.882 58.5915 195.659 58.5915C193.395 58.5915 191.661 56.7616 191.661 54.541ZM295.948 54.2983C296.533 54.2983 297.544 54.4395 297.544 53.5203C297.544 52.7955 296.913 52.7026 296.385 52.7026H295.085V54.2983H295.948V54.2983ZM298.027 56.8081H297.396L296.05 54.7287H295.085V56.8081H294.554V52.3153H296.485C296.868 52.3153 297.207 52.3686 297.59 52.5563C297.932 52.7043 298.073 53.0933 298.073 53.5237C298.073 54.4429 297.449 54.7304 296.674 54.7304L298.027 56.8081V56.8081ZM299.517 54.541C299.517 52.6096 297.978 51.0621 296.002 51.0621C295.545 51.0605 295.092 51.1494 294.67 51.3237C294.248 51.4979 293.864 51.7541 293.542 52.0775C293.219 52.4009 292.963 52.785 292.789 53.2078C292.615 53.6306 292.526 54.0837 292.528 54.541C292.528 56.5189 294.075 58.1095 296.002 58.1095C297.978 58.1078 299.517 56.5189 299.517 54.541ZM292.043 54.541C292.043 52.3686 293.731 50.5784 296.002 50.5784C298.217 50.5784 300 52.3686 300 54.541C300 56.7616 298.217 58.5915 296.002 58.5915C293.731 58.5915 292.043 56.7616 292.043 54.541ZM57.5724 91.3789C56.1839 91.3839 54.8082 91.1137 53.5244 90.5839C52.2407 90.054 51.0743 89.275 50.0926 88.2918C49.1109 87.3085 48.3331 86.1404 47.8042 84.8547C47.2753 83.5691 47.0057 82.1914 47.011 80.8009C47.0105 79.4123 47.2834 78.0372 47.8142 76.7543C48.3449 75.4715 49.1229 74.3059 50.1039 73.3244C51.0848 72.3429 52.2493 71.5647 53.5309 71.0343C54.8124 70.5039 56.1858 70.2317 57.5724 70.2333C58.9585 70.2326 60.331 70.5055 61.6117 71.0363C62.8923 71.5672 64.0559 72.3455 65.036 73.327C66.016 74.3084 66.7933 75.4736 67.3234 76.7561C67.8535 78.0385 68.126 79.413 68.1253 80.8009C68.131 82.1908 67.862 83.568 67.3338 84.8533C66.8056 86.1386 66.0287 87.3065 65.0477 88.2897C64.0668 89.273 62.9013 90.0521 61.6184 90.5823C60.3354 91.1125 58.9603 91.3832 57.5724 91.3789V91.3789ZM17.9342 91.3789C12.1017 91.3789 7.42604 86.6984 7.42604 80.8009C7.42604 74.9602 12.1017 70.2333 17.9342 70.2333C23.7668 70.2333 28.4957 74.9602 28.4957 80.8009C28.5005 82.1913 28.2306 83.5688 27.7015 84.8542C27.1725 86.1396 26.3947 87.3076 25.4131 88.2907C24.4314 89.2739 23.2652 90.0529 21.9817 90.583C20.6982 91.113 19.3226 91.3835 17.9342 91.3789V91.3789ZM150.817 91.3789C144.985 91.3789 140.311 86.6984 140.311 80.8009C140.311 74.9602 144.985 70.2333 150.817 70.2333C156.602 70.2333 161.332 74.9602 161.332 80.8009C161.338 82.1877 161.071 83.5619 160.545 84.8448C160.019 86.1277 159.246 87.294 158.269 88.2768C157.292 89.2596 156.131 90.0395 154.852 90.5719C153.573 91.1042 152.202 91.3785 150.817 91.3789V91.3789ZM110.751 91.3789C109.362 91.3874 107.984 91.1195 106.699 90.5909C105.414 90.0623 104.246 89.2834 103.264 88.2995C102.281 87.3155 101.504 86.146 100.976 84.8588C100.448 83.5716 100.181 82.1923 100.19 80.8009C100.186 79.4114 100.456 78.0348 100.986 76.7503C101.515 75.4659 102.293 74.299 103.275 73.3168C104.257 72.3346 105.422 71.5565 106.706 71.0273C107.989 70.4982 109.364 70.2283 110.751 70.2333C112.138 70.2324 113.511 70.505 114.792 71.0357C116.073 71.5663 117.237 72.3446 118.218 73.3259C119.199 74.3073 119.977 75.4726 120.508 76.7551C121.039 78.0377 121.312 79.4125 121.313 80.8009C121.317 82.1912 121.047 83.5686 120.518 84.8539C119.989 86.1392 119.211 87.3071 118.229 88.2902C117.248 89.2734 116.082 90.0524 114.798 90.5825C113.515 91.1126 112.139 91.3832 110.751 91.3789ZM68.1803 95.3416C65.1109 97.6134 61.3909 98.8318 57.5742 98.8153C47.6367 98.8153 39.5866 90.7523 39.5866 80.8009C39.5866 70.9029 47.6367 62.8433 57.5742 62.8433C61.5244 62.8433 65.1876 64.1447 68.127 66.3171V51.4976H75.9416V98.5279H68.1803V95.3416ZM193.637 74.3371C193.201 71.3866 190.837 69.2676 187.081 69.2676C185.104 69.2676 180.814 69.9389 180.814 72.4986C180.814 76.315 187.324 76.6507 188.912 76.7505C199.331 77.7162 202.365 82.3037 202.365 87.7089C202.365 91.7163 200.34 94.7081 197.45 96.834C194.992 98.6191 189.93 99.3421 186.841 99.3421C179.992 99.3421 173.053 95.5826 172.135 87.0772H179.803C180.229 91.088 184.429 92.5839 186.792 92.5839C191.08 92.5839 194.119 90.7523 194.119 88.6264C194.119 85.2473 190.987 84.5209 186.45 84.0406C183.903 83.7514 179.024 82.8804 177.003 81.19C174.741 79.4049 172.81 77.3736 172.81 73.8999C172.81 67.6701 177.678 62.7469 187.277 62.6936C195.231 62.6471 201.258 67.3827 201.445 74.282L193.637 74.3371V74.3371ZM28.5421 95.3416C25.4729 97.6151 21.7518 98.8336 17.9342 98.8153C7.95549 98.8153 0 90.7523 0 80.8009C0 70.9029 7.95549 62.8433 17.9342 62.8433C21.8914 62.8433 25.5545 64.1447 28.5421 66.3171V62.8915H36.2552V98.5279H28.5421V95.3416ZM89.3411 60.4282V51.4494H81.5799V60.4282H89.3411ZM89.3411 98.5262V62.8898H81.5799V98.5262H89.3411V98.5262ZM161.332 95.3416C158.438 97.5605 154.776 98.8153 150.817 98.8153C140.887 98.8153 132.837 90.7523 132.837 80.8009C132.837 70.9029 140.887 62.8433 150.817 62.8433C154.776 62.8433 158.439 64.1447 161.332 66.3171V62.8915H169.138V98.5279H161.427L161.332 95.3416ZM121.359 95.3416C118.42 97.5605 114.71 98.8153 110.751 98.8153C100.867 98.8153 92.7705 90.7523 92.7705 80.8009C92.7705 70.9029 100.867 62.8433 110.751 62.8433C114.71 62.8433 118.373 64.1447 121.359 66.3171V51.4976H129.074V98.5279H121.359V95.3416ZM262.347 76.7505C262.78 68.3002 260.269 59.027 253.517 50C246.964 58.4503 244.654 68.0592 245.228 76.7505H262.347V76.7505ZM246.239 83.4571C245.95 82.1969 245.709 80.9261 245.517 79.6476H262.055C261.866 80.9267 261.625 82.1976 261.333 83.4571H246.239V83.4571ZM250.096 93.0229C251.158 94.7924 252.384 96.4575 253.759 97.996C255.112 96.4966 256.317 94.8045 257.429 93.0229H250.096ZM288.142 76.797C290.069 72.7878 291.422 68.3002 292.045 63.2771C280.814 64.2446 271.991 69.6962 266.055 76.797H288.142ZM286.647 79.6476C285.875 80.9955 285.052 82.2022 284.189 83.4571L261.667 83.3624C262.388 82.1557 263.114 80.8009 263.936 79.6476H286.647V79.6476ZM277.773 90.124C279.185 88.9704 280.506 87.7107 281.725 86.3559L225.795 86.3094C227.054 87.7052 228.424 88.997 229.891 90.1722L277.773 90.124V90.124ZM258.247 93.0229C257.916 94.6271 257.723 96.257 257.67 97.8944C263.021 97.6551 268.565 96.0112 273.581 93.0229H258.247ZM220.88 79.6476C221.697 80.9955 222.518 82.2022 223.438 83.4571H245.859C245.228 82.1557 244.459 80.9025 243.633 79.6476H220.88V79.6476ZM233.991 93.0229C239.007 96.0112 244.506 97.6551 249.855 97.8944C249.795 96.2601 249.619 94.6321 249.328 93.0229H233.991V93.0229ZM241.463 76.797C235.584 69.6962 226.812 64.2446 215.573 63.2771C216.145 67.9527 217.43 72.5125 219.384 76.797H241.463Z" fill="black"/>
</svg>
