<svg width="300" height="150" viewBox="0 0 300 150" fill="none" xmlns="http://www.w3.org/2000/svg">
<path d="M187.269 91.25V58.275H194.906V84.55H208.281V91.2375H187.269V91.25ZM126.119 70.7L144.744 56.375C146.5 57.8 148.244 59.2375 150 60.6687L132.331 74.0438L136.15 77.3875L153.819 63.5375C155.575 64.9625 157.319 66.4 159.075 67.8375C153.213 72.4899 147.324 77.1066 141.406 81.6875L145.219 85.0375L162.906 70.6937L162.9 58.2812H170.544V84.5563H184.394V91.2437H163.381V78.825C157.162 83.5938 150.962 88.3813 144.75 93.15L126.119 78.825C125.219 83.3813 122.038 87.325 117.919 89.4125C116.138 90.3312 114.188 90.9125 112.2 91.1375C111.056 91.275 109.906 91.2437 108.756 91.2437H96.975V58.2812H110.563C114.116 58.3173 117.556 59.5429 120.331 61.7625C123.169 64.0125 125.194 67.2125 126.125 70.7H126.119ZM104.15 64.9688V85.0312L110.106 85.025C111.358 84.9843 112.587 84.6707 113.705 84.1061C114.823 83.5415 115.805 82.7395 116.581 81.7563C117.893 80.1097 118.699 78.1176 118.901 76.0219C119.103 73.9261 118.692 71.8168 117.719 69.95C117.104 68.7616 116.242 67.7191 115.189 66.8931C114.137 66.0671 112.919 65.4769 111.619 65.1625C110.581 64.9125 109.506 64.975 108.45 64.9625H104.15V64.9688ZM148.875 0H150.981C162.761 0.153824 174.337 3.09444 184.763 8.58125C194.936 13.9354 203.756 21.5384 210.55 30.8125C219.728 43.3145 224.779 58.3673 225 73.875V76.125C224.765 94.799 217.55 112.709 204.775 126.331C197.889 133.686 189.589 139.573 180.372 143.64C171.155 147.707 161.211 149.871 151.138 150H148.881C140.016 149.866 131.245 148.161 122.975 144.963C112.901 141.041 103.79 134.996 96.2625 127.237C88.2065 118.954 82.1633 108.929 78.6 97.9375C76.3302 90.8863 75.1171 83.5378 75 76.1312V73.875C75.2448 59.6341 79.5653 45.7615 87.45 33.9C94.8163 22.7861 104.966 13.796 116.888 7.825C126.83 2.85427 137.761 0.180117 148.875 0V0ZM147.919 7.6875C133.26 8.1057 119.142 13.3201 107.731 22.5313C98.3984 30.0444 91.2378 39.9105 86.9875 51.1125C80.8089 67.5482 81.2413 85.7389 88.1938 101.863C92.9867 112.883 100.638 122.423 110.356 129.494C119.184 135.931 129.454 140.107 140.269 141.656C149.369 142.963 158.738 142.431 167.619 140.031C179.775 136.749 190.766 130.118 199.337 120.894C207.916 111.685 213.733 100.25 216.125 87.8937C217.991 78.1993 217.731 68.2153 215.363 58.6312C212.603 47.5827 207.086 37.4148 199.328 29.079C191.569 20.7432 181.823 14.5121 171 10.9687C163.555 8.54209 155.745 7.43172 147.919 7.6875V7.6875Z" fill="black"/>
</svg>
