<svg width="300" height="150" viewBox="0 0 300 150" fill="none" xmlns="http://www.w3.org/2000/svg">
<path d="M150 27.2409C73.4 27.2409 11.3125 48.51 11.3125 74.5251C11.3125 100.54 73.4 121.797 150 121.797C226.587 121.797 288.675 100.54 288.675 74.5251C288.675 48.4974 226.587 27.2409 150 27.2409V27.2409ZM78.775 105.588C70.575 105.65 63.3625 100.565 62.525 91.7639C62.049 87.1777 63.3668 82.5853 66.2 78.9572C68.6375 75.7681 72.7625 73.1189 76.25 72.466C77.375 72.2526 78.9125 72.3907 79.55 73.144C80.5375 74.3117 80.25 75.5798 79.2625 76.082C76.6 77.4506 73.3875 79.7859 71.8 82.9875C71.0728 84.3452 70.7282 85.8764 70.803 87.4162C70.8779 88.9561 71.3696 90.4462 72.225 91.7262C75.5125 96.7108 84.6875 96.8489 93.2125 88.9012C95.325 86.9426 97.2125 85.0843 99.125 82.8746C102.875 78.5554 104.125 76.9734 109.125 70.0177C109.187 69.9423 109.2 69.8419 109.175 69.7917C109.138 69.7038 109.062 69.6661 108.925 69.6661C105.587 69.754 102.675 70.7584 99.8625 72.8678C99.05 73.4704 97.875 73.3826 97.3625 72.6041C96.7875 71.7252 97.2 70.5576 98.1375 69.9047C102.675 66.7281 107.638 66.1631 112.713 65.2968C112.713 65.2968 113.062 65.3219 113.35 64.9201C115.437 62.2458 117 59.8351 119.225 57.1231C121.45 54.3609 124.35 51.8498 126.55 49.9413C129.625 47.2796 131.6 46.3881 133.6 45.2958C134.137 45.0196 133.538 44.6806 133.375 44.6806C122.175 42.5712 110.538 39.8341 99.4125 43.9774C91.7125 46.8652 88.325 52.9923 89.95 57.098C91.1125 59.9983 94.9125 60.488 98.4875 58.7302C101.596 57.1816 104.234 54.8227 106.125 51.9C107.212 50.2176 109.5 51.4229 108.263 54.3483C105.013 62.0198 98.8 68.1218 91.225 68.3854C84.775 68.5863 80.6125 63.8278 80.625 57.9518C80.65 46.3504 93.5 38.7167 107 37.5867C123.263 36.2307 138.663 40.5874 154.813 42.5461C167.175 44.0528 179.038 44.0904 191.463 41.2152C192.938 40.9013 193.963 41.843 193.875 43.3246C193.75 45.4841 192.087 47.5558 188 49.8032C183.337 52.3646 178.462 53.143 173.375 53.1932C161.075 53.2937 149.613 48.4723 137.75 45.8859C137.775 46.4007 137.9 47.0284 137.462 47.3549C130.9 52.2264 124.962 57.1733 120.987 64.104C120.85 64.2672 120.925 64.4179 121.15 64.4053C124.613 64.217 127.713 64.1291 130.938 63.878C131.5 63.8278 131.525 63.6897 131.475 63.2753C131.298 61.9916 131.433 60.684 131.869 59.4641C132.304 58.2442 133.027 57.1481 133.975 56.2693C136.125 54.3483 138.813 54.1349 140.6 55.516C142.6 57.098 142.437 59.9481 141.325 62.0826C140.83 63.0199 140.152 63.8475 139.331 64.5162C138.511 65.1849 137.565 65.6809 136.55 65.9748C136.55 65.9748 136.175 66.0501 136.225 66.4017C136.3 66.9415 138.725 68.2976 138.937 68.6617C139.15 69.0007 139.037 69.5406 138.675 69.9423C138.531 70.1188 138.35 70.261 138.144 70.3587C137.939 70.4564 137.715 70.5071 137.487 70.5073C137.075 70.5073 136.825 70.3567 136.287 70.0679C135.001 69.3825 133.856 68.458 132.913 67.3433C132.613 66.9541 132.45 66.9416 131.675 66.9792C128.188 67.1927 122.75 67.72 119.062 68.1846C118.175 68.285 118.037 68.4608 117.862 68.7747C111.987 78.5052 105.713 88.9891 98.825 96.0202C91.425 103.554 85.2875 105.537 78.775 105.588V105.588ZM238.125 58.3033C236.987 60.2871 215.013 93.8858 213.625 97.3511C213.188 98.456 213.125 99.2972 213.575 99.9124C214.725 101.469 217.287 100.553 218.887 99.4353C223.65 96.1458 226.95 92.1531 230.6 88.6627C230.812 88.4994 231.175 88.4367 231.413 88.6627C231.95 89.1649 232.738 89.8052 233.288 90.3828C233.336 90.4278 233.376 90.4822 233.404 90.5427C233.431 90.6033 233.447 90.6687 233.449 90.7354C233.452 90.802 233.441 90.8684 233.417 90.9307C233.394 90.993 233.358 91.0501 233.313 91.0984C229.973 95.3143 226.184 99.1499 222.012 102.537C216.137 107.107 210.275 108.274 207.363 105.349C206.335 104.273 205.716 102.869 205.612 101.381C205.587 100.666 205.225 100.628 204.888 100.955C201.413 104.407 195.387 108.224 189.912 105.5C185.337 103.24 184.275 97.7403 185.125 93.1199C185.138 93.0194 185.05 92.3666 184.487 92.7432C183.333 93.5862 182.072 94.2702 180.737 94.7772C179.302 95.4355 177.74 95.7657 176.163 95.744C175.028 95.757 173.91 95.4704 172.921 94.9129C171.932 94.3554 171.105 93.5466 170.525 92.5674C169.787 91.2318 169.38 89.7375 169.337 88.2107C169.325 88.0726 169.125 87.8089 168.925 88.1479C165.175 93.8858 161.687 99.4353 157.987 105.261C157.787 105.537 157.613 105.713 157.238 105.726L149.9 105.738C149.45 105.738 149.238 105.387 149.475 104.947C150.775 102.436 157.9 92.015 162.725 83.1508C164.062 80.715 163.787 79.4594 162.962 78.9196C161.925 78.2416 159.862 79.2586 158.125 80.5894C153.387 84.1929 149.413 89.8178 147.388 92.3289C146.2 93.7979 145.075 95.9825 141.975 99.36C137.087 104.696 130.6 107.76 124.375 105.638C122.731 105.078 121.248 104.121 120.058 102.852C118.868 101.582 118.007 100.038 117.55 98.3555C117.363 97.7027 117 97.5269 116.638 97.9538C115.638 99.2093 113.575 101.08 111.85 102.248C111.662 102.386 111.2 102.662 110.8 102.461C110.047 101.727 109.407 100.885 108.9 99.9627C108.825 99.7953 108.803 99.6083 108.839 99.4281C108.875 99.248 108.966 99.0836 109.1 98.9582C111.562 96.7861 112.913 95.5557 113.988 94.1871C114.788 93.1827 115.4 92.0527 116.112 90.2321C117.612 86.4403 121.025 79.359 127.838 75.6928C130.354 74.2614 133.121 73.328 135.987 72.9431C137.237 72.8176 138.275 72.9682 138.65 73.9476C138.788 74.3619 139.137 75.2659 139.35 75.9313C139.487 76.3331 139.387 76.647 138.912 76.8228C134.912 78.3546 130.875 80.7276 128.1 84.4817C124.938 88.7254 124.087 93.8481 126.2 96.7861C127.737 98.9205 130.225 99.2972 132.625 98.5313C136.25 97.3762 139.35 93.9737 140.95 90.207C142.675 86.0762 142.95 81.2047 141.675 76.9107C141.475 76.1699 141.663 75.6049 142.138 75.2031C143.1 74.4121 144.438 73.7969 144.825 73.596C145.207 73.3909 145.65 73.3352 146.071 73.4395C146.491 73.5439 146.857 73.8009 147.1 74.161C148.425 76.1322 149.137 78.907 149.225 81.7822C149.3 82.3974 149.55 82.41 149.85 82.0961C152.225 79.5599 154.425 76.8479 156.95 74.8139C159.262 72.9682 162.225 71.4615 164.988 71.5243C168.563 71.5997 170.338 74.0354 170.225 78.3797C170.213 78.9321 170.6 78.8819 170.862 78.5178C171.691 77.2677 172.702 76.1503 173.863 75.2031C176.338 73.1566 178.863 72.24 181.5 72.4158C184.75 72.6669 187.35 75.6426 186.812 79.0326C186.683 80.1048 186.295 81.1292 185.683 82.0173C185.071 82.9054 184.253 83.6306 183.3 84.1301C182.498 84.559 181.587 84.7356 180.684 84.6371C179.781 84.5385 178.929 84.1694 178.237 83.5777C177.702 83.0689 177.309 82.4274 177.098 81.7177C176.888 81.008 176.867 80.2552 177.038 79.5348C177.1 79.2209 176.7 78.9321 176.363 79.2837C173.188 82.5983 172.95 86.8923 175.025 88.8259C177.312 90.9603 180.75 89.529 183.25 87.8842C187.825 84.8834 191.375 80.8154 195.487 77.6766C198.212 75.5923 201.325 73.7341 204.813 73.2696C206.728 72.9754 208.688 73.2008 210.488 73.9224C212.988 74.9394 214.562 77.0613 214.762 78.8944C214.812 79.4343 215.212 79.4971 215.55 79.02C217.525 75.9313 228.113 59.9732 228.988 58.3033C229.238 57.7886 229.538 57.7132 230.1 57.7132H237.675C238.112 57.7132 238.312 57.9643 238.125 58.3033V58.3033ZM209.125 85.9758C209.047 86.1318 209.034 86.3121 209.087 86.478C209.125 86.7291 209.463 86.9802 209.788 87.1058C209.913 87.1434 209.975 87.2313 209.838 87.5076C208.9 89.5164 208.05 90.6716 206.875 92.4168C205.837 93.9589 204.572 95.3346 203.125 96.4973C200.9 98.343 197.825 100.352 195.275 99.0084C194.15 98.4183 193.65 96.8238 193.687 95.5431C193.737 91.9271 195.338 88.2107 198.3 84.557C201.9 80.0998 205.888 77.7896 208.5 79.0577C211.2 80.3509 210.35 83.5023 209.125 85.9632V85.9758ZM134.763 62.3588C134.669 61.5566 134.77 60.7434 135.057 59.989C135.344 59.2346 135.809 58.5614 136.413 58.0271C137.125 57.3993 138.075 57.2487 138.663 57.7509C139.313 58.3159 139 59.7221 138.338 60.6889C137.618 61.7775 136.53 62.5671 135.275 62.9112C135.05 62.9614 134.85 62.861 134.763 62.3588V62.3588ZM150 18C66.75 18 0 43.0734 0 74.5C0 105.738 67.2875 131 150 131C232.713 131 300 105.638 300 74.5C300 43.3622 232.713 18 150 18ZM150 126.078C70.6125 126.078 6.25 103.001 6.25 74.5251C6.25 46.0366 70.625 22.9594 150 22.9594C229.375 22.9594 293.725 46.0366 293.725 74.5251C293.725 103.001 229.375 126.078 150 126.078V126.078Z" fill="black"/>
</svg>
