<svg width="300" height="150" viewBox="0 0 300 150" fill="none" xmlns="http://www.w3.org/2000/svg">
<path d="M72.8997 46.5C65.3997 46.5 62.6997 51.75 62.6997 56.7V59.7H61.0497C59.8497 59.7 58.9497 60.6 58.9497 61.8C58.9497 63 59.8497 63.9 61.0497 63.9H62.6997V84.6C62.6997 85.8 63.5997 86.7 64.7997 86.7C65.9997 86.7 66.8997 85.8 66.8997 84.6V63.75H71.6997C72.8997 63.75 73.7997 62.85 73.7997 61.65C73.7997 60.45 72.8997 59.55 71.6997 59.55H66.8997V56.55C66.8997 53.85 67.9497 50.55 72.7497 50.55C73.9497 50.55 74.8497 49.65 74.8497 48.45C74.8497 47.25 74.0997 46.5 72.8997 46.5V46.5ZM89.8497 58.95C86.5497 58.95 83.8497 60.3 82.3497 62.55V61.35C82.3497 60.15 81.4497 59.25 80.2497 59.25C79.0497 59.25 77.9997 60.15 77.9997 61.35V84.45C77.9997 85.65 78.8997 86.55 80.0997 86.55C81.2997 86.55 82.1997 85.65 82.1997 84.45V71.7C82.1997 66.3 85.0497 63.15 89.6997 63.15C90.8997 63.15 91.7997 62.25 91.7997 61.05C92.0997 60 91.0497 58.95 89.8497 58.95ZM116.55 70.35C116.55 69.15 116.4 65.85 114.45 63.15C112.5 60.3 109.5 58.8 105.45 58.8C97.7997 58.8 93.4497 63.9 93.4497 72.75C93.4497 81.9 97.7997 86.85 106.05 86.85C111.6 86.85 114.6 84.15 115.2 83.55C115.5 83.25 115.95 82.8 115.95 82.05C115.95 81 115.05 80.1 114 80.1C113.4 80.1 113.1 80.25 112.8 80.55C111.15 81.75 109.35 82.95 106.2 82.95C101.25 82.95 98.0997 79.65 97.9497 74.4H114C116.55 74.25 116.55 71.85 116.55 70.35V70.35ZM105.45 62.85C109.95 62.85 112.2 65.4 112.35 70.35H97.7997C98.2497 65.55 100.95 62.85 105.45 62.85V62.85ZM131.25 70.65C127.95 69.6 125.25 68.55 125.25 66.15C125.25 63.45 128.25 63.15 129.9 63.15C133.05 63.15 134.55 64.2 135.9 65.4C136.35 65.85 136.8 66 137.4 66C138.45 66 139.35 65.1 139.35 64.05C139.35 63.45 139.05 63 138.9 62.7C137.1 60.3 133.95 58.95 130.05 58.95C124.5 58.95 121.05 61.65 121.05 66.15C121.05 71.55 125.85 73.2 130.05 74.7C133.2 75.75 136.05 76.65 136.05 79.05C136.05 82.2 132.45 82.8 130.35 82.8C127.5 82.8 125.25 81.9 123.45 80.1C122.85 79.5 122.4 79.5 121.95 79.5C120.9 79.5 120 80.4 120 81.45C120 81.9 120.15 82.2 120.45 82.8C122.1 84.9 125.85 87 130.5 87C136.8 87 140.55 84 140.55 79.2C140.1 73.65 135.45 72.15 131.25 70.65ZM157.2 58.8C154.2 58.8 151.5 60 150 61.95V47.1C150 45.9 149.1 45 147.9 45C146.7 45 145.8 45.9 145.8 47.1V84.45C145.8 85.65 146.7 86.55 147.9 86.55C149.1 86.55 150 85.65 150 84.45V70.35C150 65.25 152.4 62.7 157.2 62.7C161.85 62.7 163.65 64.8 163.65 69.9V84.3C163.65 85.5 164.55 86.4 165.75 86.4C166.95 86.4 167.85 85.5 167.85 84.3V69.3C168 62.4 164.4 58.8 157.2 58.8V58.8ZM204.3 59.25C203.4 59.25 202.65 59.85 202.2 60.75L196.05 78.45L190.95 60.75C190.8 60 190.05 59.25 188.85 59.25C187.8 59.25 187.05 60 186.75 60.75L181.65 78.45L175.5 60.6C175.2 59.7 174.45 59.25 173.4 59.25C172.2 59.25 171.3 60.15 171.3 61.35C171.3 61.65 171.3 61.95 171.45 62.25L179.85 85.2C180.15 86.1 180.9 86.55 181.95 86.55C183 86.55 183.75 85.95 184.05 85.05L189 68.25L193.95 85.05C194.25 85.95 195.15 86.55 196.05 86.55C196.95 86.55 197.7 85.95 198.15 85.05L206.55 62.1C206.7 61.8 206.7 61.5 206.7 61.2C206.55 60.15 205.5 59.25 204.3 59.25V59.25ZM220.2 58.8C212.25 58.8 207.9 63.75 207.9 72.75C207.9 81.75 212.25 86.85 220.2 86.85C228.15 86.85 232.5 81.9 232.5 72.75C232.5 63.9 228.15 58.8 220.2 58.8ZM220.2 82.95C214.95 82.95 212.25 79.65 212.25 72.9C212.25 66.3 214.95 62.85 220.2 62.85C225.45 62.85 228.15 66.15 228.15 72.9C228 79.65 225.45 82.95 220.2 82.95ZM249.3 58.95C246 58.95 243.3 60.3 241.8 62.55V61.35C241.8 60.15 240.9 59.25 239.7 59.25C238.5 59.25 237.6 60.15 237.6 61.35V84.45C237.6 85.65 238.5 86.55 239.7 86.55C240.9 86.55 241.8 85.65 241.8 84.45V71.7C241.8 66.3 244.65 63.15 249.3 63.15C250.5 63.15 251.4 62.25 251.4 61.05C251.4 60 250.5 58.95 249.3 58.95ZM265.95 70.35L274.95 63.15C275.7 62.55 275.85 61.8 275.85 61.35C275.85 60.15 274.95 59.25 273.75 59.25C273.45 59.25 272.85 59.25 272.25 59.85L259.35 70.35V47.1C259.35 45.9 258.45 45 257.25 45C256.05 45 255.15 45.9 255.15 47.1V84.45C255.15 85.65 256.05 86.55 257.25 86.55C258.45 86.55 259.35 85.65 259.35 84.45V75.45L262.35 73.05L272.25 85.65C272.85 86.25 273.45 86.7 274.05 86.7C275.25 86.7 276.15 85.8 276.15 84.6C276.15 84.3 276.15 83.7 275.7 83.25L265.95 70.35V70.35ZM290.55 70.65C287.25 69.6 284.55 68.55 284.55 66.15C284.55 63.45 287.55 63.15 289.2 63.15C292.35 63.15 293.85 64.2 295.2 65.4C295.65 65.85 296.1 66 296.7 66C297.75 66 298.65 65.1 298.65 64.05C298.65 63.45 298.35 63 298.2 62.7C296.4 60.3 293.25 58.95 289.35 58.95C283.8 58.95 280.35 61.65 280.35 66.15C280.35 71.55 285.15 73.2 289.35 74.7C292.5 75.75 295.35 76.65 295.35 79.05C295.35 82.2 291.75 82.8 289.65 82.8C286.8 82.8 284.55 81.9 282.75 80.1C282.15 79.5 281.7 79.5 281.25 79.5C280.2 79.5 279.3 80.4 279.3 81.45C279.3 81.9 279.45 82.2 279.75 82.8C281.4 84.9 285.15 87 289.8 87C296.1 87 299.85 84 299.85 79.2C299.4 73.65 294.75 72.15 290.55 70.65V70.65Z" fill="#656565"/>
<path d="M0.300293 83.2516C1.05029 88.8016 3.75029 93.7516 7.50029 97.5016L16.2003 88.8016C16.2003 79.9516 20.8503 71.4016 28.9503 66.6016L0.300293 83.2516Z" fill="#9B65C3"/>
<path d="M16.2003 88.8C11.8503 88.8 7.50029 87.75 3.45029 85.35C2.40029 84.75 1.35029 84 0.300293 83.25C1.05029 88.8 3.75029 93.75 7.50029 97.5L16.2003 88.8Z" fill="#9B65C3"/>
<path d="M16.2 88.7988L7.5 97.4988C11.25 101.249 16.2 103.949 21.75 104.699L38.4 76.0488C33.6 84.1488 25.05 88.7988 16.2 88.7988V88.7988Z" fill="#BE63C5"/>
<path d="M19.65 101.549C17.25 97.4988 16.2 93.1488 16.2 88.7988L7.5 97.4988C11.25 101.249 16.2 103.949 21.75 104.699C21 103.799 20.25 102.749 19.65 101.549V101.549Z" fill="#BF63C6"/>
<path d="M48.75 55.2012L28.95 66.6012C20.7 71.4012 11.1 70.9512 3.45 66.6012C1.2 70.3512 0 74.7012 0 79.5012C0 80.8512 0.15 82.0512 0.3 83.2512C1.35 84.0012 2.4 84.7512 3.45 85.3512C7.5 87.7512 11.85 88.8012 16.2 88.8012L49.2 55.8012C49.05 55.5012 48.9 55.3512 48.75 55.2012V55.2012Z" fill="#3278B1"/>
<path d="M3.45029 85.3516C7.50029 87.7516 11.8503 88.8016 16.2003 88.8016C16.2003 79.9516 20.8503 71.4016 28.9503 66.6016L0.300293 83.2516C1.20029 84.0016 2.25029 84.7516 3.45029 85.3516V85.3516Z" fill="#3278B2"/>
<path d="M3.45 66.6016C1.2 70.3516 0 74.7016 0 79.5016C0 80.8516 0.15 82.0516 0.3 83.2516L28.95 66.6016C20.85 71.4016 11.1 71.1016 3.45 66.6016V66.6016Z" fill="#45A4EC"/>
<path d="M49.2003 55.8016C49.0503 55.6516 48.9003 55.5016 48.6003 55.3516C48.3003 55.2016 48.1503 54.9016 47.8503 54.7516C46.9503 54.1516 45.7503 53.8516 44.7003 53.8516H25.5003C16.0503 53.8516 7.80029 58.9516 3.30029 66.6016C10.9503 70.9516 20.7003 71.4016 28.8003 66.6016C20.5503 71.4016 16.0503 79.9516 16.0503 88.8016C24.9003 88.8016 33.4503 84.1516 38.2503 76.0516L49.6503 56.2516C49.6503 56.1016 49.5003 55.9516 49.2003 55.8016V55.8016Z" fill="#19BB7D"/>
<path d="M28.9497 66.6016L48.7497 55.2016C48.4497 55.0516 48.2997 54.7516 47.9997 54.6016L3.44971 66.6016C11.0997 71.1016 20.8497 71.4016 28.9497 66.6016Z" fill="#08C7FB"/>
<path d="M44.7003 53.8516H25.5003C16.0503 53.8516 7.80029 58.9516 3.30029 66.6016L47.8503 54.6016C46.9503 54.1516 45.9003 53.8516 44.7003 53.8516V53.8516Z" fill="#59F2F6"/>
<path d="M38.3996 76.0484L49.7996 56.2484C49.6496 56.0984 49.4996 55.9484 49.3496 55.6484L16.3496 88.6484C16.3496 92.9984 17.3996 97.3484 19.7996 101.398C20.3996 102.448 21.1496 103.498 21.8996 104.548C23.0996 104.698 24.4496 104.848 25.6496 104.848C30.2996 104.848 34.6496 103.648 38.3996 101.398C33.8996 93.8984 33.5996 84.1484 38.3996 76.0484V76.0484Z" fill="#DA3757"/>
<path d="M16.1997 88.7988C16.1997 93.1488 17.2497 97.4988 19.6497 101.549C20.2497 102.599 20.9997 103.649 21.7497 104.699L38.3997 76.0488C33.5997 84.1488 25.0497 88.7988 16.1997 88.7988V88.7988Z" fill="#D33C4E"/>
<path d="M38.4 76.0488L21.75 104.699C22.95 104.849 24.3 104.999 25.5 104.999C30.15 104.999 34.5 103.799 38.25 101.549C33.9 93.8988 33.6 84.1488 38.4 76.0488V76.0488Z" fill="#EE5A24"/>
<path d="M50.2503 57.0012C50.1003 56.7012 49.9503 56.4012 49.6503 56.2512C49.5003 56.1012 49.3503 55.9512 49.2003 55.6512C49.0503 55.5012 48.9003 55.3512 48.6003 55.2012L28.8003 66.6012C20.5503 71.4012 16.0503 79.9512 16.0503 88.8012C24.9003 88.8012 33.4503 84.1512 38.2503 76.0512C33.4503 84.3012 33.9003 93.9012 38.2503 101.551C45.9003 97.2012 51.0003 88.8012 51.0003 79.3512V60.3012C51.1503 59.1012 50.8503 58.0512 50.2503 57.0012V57.0012Z" fill="#8BDF55"/>
<path d="M48.7497 55.2012L28.9497 66.6012C20.6997 71.4012 16.1997 79.9512 16.1997 88.8012L49.1997 55.8012C49.0497 55.5012 48.8997 55.3512 48.7497 55.2012V55.2012Z" fill="#25C16F"/>
<path d="M16.1997 88.7984C25.0497 88.7984 33.5997 84.1484 38.3997 76.0484L49.7997 56.2484C49.6497 56.0984 49.4997 55.9484 49.3497 55.6484L16.1997 88.7984Z" fill="#8BDF55"/>
<path d="M49.8001 56.25L38.4001 76.05C33.6001 84.3 34.0501 93.9 38.4001 101.55L50.4001 57C50.1001 56.85 49.9501 56.55 49.8001 56.25V56.25Z" fill="#FFBB00"/>
<path d="M38.4004 101.548C46.0504 97.1984 51.1504 88.7984 51.1504 79.3484V60.2984C51.1504 59.0984 50.8504 58.0484 50.2504 57.1484L38.4004 101.548Z" fill="#FFA800"/>
</svg>
