<svg width="300" height="150" viewBox="0 0 300 150" fill="none" xmlns="http://www.w3.org/2000/svg">
<path d="M0 15V135H300V15H0ZM150.025 129C66.35 129 6 104.5 6 75C6 45.5 66.3875 21 150.025 21C233.65 21 294 45.5 294 75C294 104.5 233.7 129 150.025 129V129ZM147.213 53.225H199.413V65.275C198.125 64.6875 196.875 64.6875 195.588 64.6875H173.612V70.4375H194.725V79.5875H173.612V85.3H195.588C196.875 85.3 198.125 85.3 199.413 84.675V96.7625H147.213C147.863 95.5 147.863 94.2875 147.863 93.025V57C147.863 55.7375 147.863 54.525 147.213 53.225V53.225ZM58.7625 57V93.0125C58.7625 94.275 58.7625 95.4875 59.4125 96.75H30C30.65 95.4875 30.65 94.275 30.65 93.0125V57C30.65 55.7375 30.65 54.525 30 53.2625H59.4125C58.7625 54.525 58.7625 55.7375 58.7625 57V57ZM139.35 93.0125C140.3 94.35 141.325 95.6125 142.537 96.75H110.063C110.063 95.4875 108.813 92.925 107.438 90.9125C106.063 88.9 98.625 77.8625 98.625 77.8625V93.0125C98.625 94.275 98.625 95.4875 99.275 96.75H72.225C72.875 95.4875 72.875 94.275 72.875 93.0125V57C72.875 55.7375 72.875 54.525 72.225 53.2625H99.275C98.625 54.525 98.625 55.7375 98.625 57V72.7375C98.625 72.7375 107.262 61.7375 109.25 59.175C110.75 57.25 112.6 54.5125 112.6 53.2625H140.813C138.875 54.525 136.725 56.7875 134.962 58.8875L124.637 71.1875C124.637 71.1875 137.625 90.5375 139.35 93.0125V93.0125ZM271.175 55.45C271.175 54.8663 270.946 54.306 270.537 53.8898C270.127 53.4736 269.571 53.2348 268.987 53.225H266.363V60.1125H267.4V57.675H268.9L270.275 60.1125H271.438L269.937 57.4625C270.306 57.2703 270.616 56.9817 270.834 56.6273C271.052 56.2729 271.17 55.866 271.175 55.45V55.45ZM268.812 56.7125H267.388V54.325H268.937C269.625 54.325 270.1 54.9125 270.1 55.5875C270.1 56.25 269.5 56.75 268.812 56.7125V56.7125ZM268.55 51H268.162C267.427 51.0113 266.701 51.1686 266.027 51.4628C265.353 51.7569 264.745 52.1822 264.236 52.7137C263.728 53.2452 263.331 53.8724 263.067 54.5589C262.803 55.2454 262.678 55.9774 262.7 56.7125C262.7 56.8 262.7 56.925 262.663 57C262.724 58.5386 263.393 59.9901 264.522 61.0372C265.651 62.0842 267.149 62.6416 268.688 62.5875C269.449 62.5777 270.201 62.418 270.901 62.1174C271.601 61.8169 272.235 61.3814 272.767 60.8358C273.299 60.2903 273.717 59.6453 274 58.9379C274.282 58.2304 274.422 57.4742 274.412 56.7125V56.5C274.39 55.7536 274.22 55.0189 273.913 54.3382C273.606 53.6575 273.168 53.044 272.623 52.5331C272.078 52.0221 271.438 51.6237 270.739 51.3606C270.04 51.0975 269.296 50.975 268.55 51V51ZM268.55 61.2875C267.323 61.2976 266.142 60.8223 265.264 59.9654C264.386 59.1085 263.882 57.9392 263.862 56.7125V56.375C263.891 55.7887 264.036 55.2139 264.287 54.6835C264.538 54.153 264.892 53.6773 265.327 53.2837C265.762 52.8901 266.271 52.5862 266.824 52.3895C267.377 52.1928 267.964 52.1072 268.55 52.1375C271.125 52.1375 273.237 54.2 273.237 56.7125C273.237 59.225 271.137 61.2875 268.55 61.2875ZM257.588 57.05C257.113 55.7875 256.425 54.575 256.775 53.3125H219.062C219.237 54.575 218.762 55.7875 218.287 57.05L204.912 93.0625C204.496 94.4318 203.807 95.7029 202.888 96.8H225.2C225.025 95.5375 225.5 94.325 225.925 93.0625C226.35 91.8 226.825 90.5875 226.825 90.5875L227.087 89.9125H243.388L243.65 90.5375C244.25 92.0125 244.688 93.0125 244.688 93.0125C245.2 94.275 245.675 95.4875 245.55 96.75H273.837C272.883 95.6636 272.163 94.391 271.725 93.0125C267.039 81.0145 262.327 69.0269 257.588 57.05V57.05ZM230.5 80.7125C232.438 75.4625 234.113 71.0625 234.238 70.6375C234.588 69.7125 234.838 68.75 235.013 67.7875C235.225 68.75 235.525 69.7125 235.875 70.6375L239.825 80.7125H230.5Z" fill="black"/>
</svg>
