<svg width="300" height="150" viewBox="0 0 300 150" fill="none" xmlns="http://www.w3.org/2000/svg">
<path d="M249.577 97.1117C244.027 97.1735 241.108 93.7926 241.108 87.7899C241.108 87.394 241.108 86.9982 241.137 86.6023H262.901C263.343 85.0189 263.63 83.2832 263.63 81.6963C263.63 74.3861 258.968 68.7793 249.386 68.7793C239.617 68.7793 230.924 78.0395 230.924 87.7571C230.924 97.0789 237.236 102.744 247.831 102.744C252.495 102.744 257.095 101.222 260.328 98.8766L258.333 94.0322C255.761 95.9241 252.687 97.0536 249.577 97.1117ZM249.513 74.0521C252.748 74.0521 254.4 76.0639 254.4 80.4797C254.4 80.9046 254.365 81.333 254.336 81.7907H241.932C243.263 77.1316 246.151 74.0521 249.513 74.0521V74.0521Z" fill="#0000C9"/>
<path d="M163.45 66.7429C163.45 59.1569 157.263 53.6152 147.908 53.6152H129.794L116.124 101.957H127.544L132.585 84.1375H142.515C153.871 84.1375 163.45 77.0997 163.45 66.7429V66.7429ZM138.136 78.4725H134.204L139.63 59.2804H143.752C148.955 59.2804 151.871 62.6611 151.871 67.1387C151.871 74.329 146.006 78.4725 138.136 78.4725V78.4725Z" fill="#0000C9"/>
<path d="M149.001 133.929H159.968V133.998L176.822 75.0275H188.337L180.785 101.955H191.857L200.929 69.6966H178.342L179.613 65.219C180.248 62.8731 181.326 58.8532 182.85 54.2522C184.434 49.4987 187.319 46.5136 191.192 46.5136C193.064 46.5136 194.206 47.3343 194.206 48.736C194.141 50.2576 192.84 51.1437 192.84 53.5804C192.84 56.4128 195.348 58.6063 198.581 58.6063C202.607 58.6063 205.846 55.4978 205.846 51.692C205.846 45.8128 200.612 41.9453 192.617 41.9453C180.914 41.9453 173.203 49.1356 168.382 65.8873" fill="#0000C9"/>
<path d="M234.422 69.6934H205.082L203.652 75.0243H217.833L195.816 101.951H226.871L228.299 96.6206H212.312L234.422 69.6934Z" fill="#0000C9"/>
<path d="M292.492 69.1523C288.53 69.1523 284.309 71.6216 280.977 76.7384L282.943 69.7007H271.877L262.803 101.93H273.872L277.964 87.4293C279.613 81.4883 283.643 75.6999 286.307 75.6999C289.195 75.6999 288.117 80.8783 293.063 80.8783C296.649 80.8783 298.804 77.7117 298.804 74.8173C298.837 71.4366 296.013 69.1523 292.492 69.1523Z" fill="#0000C9"/>
<path d="M9.49646 73C18.7312 68.7645 34.7696 67.5296 55.2143 69.9296L61 49.2751C31.4676 45.6182 9.90356 49.7367 6.30011 62.7992L6.1531 63.3268C5.54248 66.4121 6.7788 69.6951 9.49646 73V73Z" fill="#3D96F7"/>
<path d="M100.519 67C91.2884 71.0657 75.2421 72.2414 54.786 69.9321L49 89.775C78.5328 93.2882 100.097 89.3315 103.701 76.7823L103.84 76.3035C104.466 73.3326 103.233 70.175 100.519 67Z" fill="#0000C9"/>
<path d="M25.8032 17L20 37.5492C54.6866 39.9515 89.9669 53.5672 100.976 66.8657C105.229 64.9337 108.038 62.3672 109.176 59.2322L104.306 76.5042C104.272 76.6682 104.242 76.836 104.197 77L108.129 63.0854C109.399 58.7145 110 56.4179 110 54.617C109.97 38.7705 66.8713 19.4169 25.8032 17V17Z" fill="#3D96F7"/>
<path d="M101 66.517C103.656 69.7569 104.862 72.9755 104.249 76L109 59C107.89 62.0893 105.146 64.6117 101 66.517V66.517Z" fill="#3D96F7"/>
<path d="M9.0121 73C4.76511 74.8992 1.95143 77.4148 0.805531 80.4895C0.272292 82.4855 0 83.84 0 84.9974C0 100.628 43.1129 119.624 84.2252 122L90 101.8C55.3169 99.4386 20.0399 86.0653 9.0121 73V73Z" fill="#0000C9"/>
<path d="M6 63L2.03991 76.4346C1.62548 77.8248 1.28012 78.9934 1 80L5.88105 63.5069C5.91558 63.3345 5.95013 63.1656 6 63V63Z" fill="white"/>
<path d="M9 72.4899C6.34194 69.2523 5.13271 66.0327 5.72994 63L1.04055 79.8383C1.02581 79.8921 1.01106 79.946 1 80C2.11704 76.9168 4.85991 74.3943 9 72.4899V72.4899Z" fill="#0000C9"/>
</svg>
