<svg width="300" height="150" viewBox="0 0 300 150" fill="none" xmlns="http://www.w3.org/2000/svg">
<path d="M237.072 47.4307V20.76H218.869V9.94204H211.811V3H175.926V9.94204V20.76V38.5256V47.4307V65.2019H198.368H211.811H218.869H237.072H246.2V47.4307H237.072Z" fill="#E3731C"/>
<path d="M183.819 98.6743C177.6 99.6656 174.422 104.203 174.422 112.187C174.422 120.221 178.655 125.594 185.149 125.594C188.17 125.594 190.914 124.602 196.685 121.807V128.305C189.76 131.444 185.683 132.413 180.106 132.413C174.066 132.413 169.816 130.829 166.347 127.333C162.791 123.818 161.01 119.176 161.01 114.008C161.01 102.508 169.625 94.7285 182.214 94.7285C190.575 94.7285 196.323 98.5011 196.323 104.041C196.323 107.61 193.647 110.065 189.676 110.065C187.638 110.065 185.963 109.537 183.821 108.308V98.6743H183.819Z" fill="black"/>
<path d="M153.136 114.01C158.711 107.068 160.679 104.267 160.679 100.857C160.679 97.4643 157.952 94.7305 154.309 94.7305C152.064 94.7305 150.045 95.7776 149.059 96.8667V111.008L139.926 123.032V95.6213H131.24L116.803 119.265V95.6213H111.814L98.707 98.7767V102.086L105.855 102.803V131.8H115.095L128.941 109.321V131.8H139.061L153.136 114.01Z" fill="black"/>
<path d="M71.1104 127.337C72.0932 127.381 72.5244 127.381 73.146 127.381C80.5884 127.381 84.5784 122.796 84.5784 114.011C84.5784 106.572 81.3136 102.615 75.288 102.615C74.2856 102.615 73.2328 102.735 71.1076 102.989V127.337H71.1104ZM71.1104 143.181L77.1024 144.496V147.856H53.5964V144.496L58.9528 143.181V102.618H53V99.1386L67.3808 94.8242H71.1132V99.6691C77.8472 95.7122 80.16 95.0113 83.6152 95.0113C91.5924 95.0113 97.4808 102.28 97.4808 112.344C97.4808 123.977 89.624 131.805 77.2452 131.805C75.8452 131.805 73.5156 131.721 71.1132 131.447V143.181H71.1104Z" fill="black"/>
<path d="M246.2 47.4316H237.072V65.2028H246.2V47.4316Z" fill="#E669A2"/>
<path d="M218.869 9.94141H211.811V20.7622H218.869V9.94141Z" fill="#F3BC87"/>
<path d="M211.811 3H175.926V9.94204H211.811V3Z" fill="#EE9C34"/>
<path d="M211.811 9.94141H175.926V20.7622H211.811V9.94141Z" fill="#E3731C"/>
<path d="M237.069 20.7598H218.869V47.4305H237.069V20.7598Z" fill="#F3BE26"/>
<path d="M237.069 47.4316H218.869V65.2028H237.069V47.4316Z" fill="#DB4E18"/>
<path d="M218.869 20.7598H211.811V47.4305H218.869V20.7598Z" fill="#E88C14"/>
<path d="M218.869 47.4316H211.811V65.2028H218.869V47.4316Z" fill="#D1390D"/>
<path d="M198.368 47.4305H211.811V20.7598H175.926V38.5253H198.368V47.4305Z" fill="#D85604"/>
<path d="M211.81 47.4316H198.368V65.2028H211.81V47.4316Z" fill="#C22303"/>
<path d="M198.368 38.5254H175.926V47.4305H198.368V38.5254Z" fill="#C14303"/>
<path d="M198.368 47.4316H175.926V65.2028H198.368V47.4316Z" fill="#AD1B02"/>
<path d="M175.926 65.2012H139.943V74.0868H175.926V65.2012Z" fill="#AD1B02"/>
</svg>
